/* XPM */
static char *result[] = {
/* columns rows colors chars-per-pixel */
"50 50 74 1 ",
"  c #182D3B",
". c #1B333D",
"X c #1D383F",
"o c #24433F",
"O c #2C503F",
"+ c #1E3C41",
"@ c #203F41",
"# c #214343",
"$ c #244B45",
"% c #294E42",
"& c #265047",
"* c #2B5343",
"= c #2E5C45",
"- c #275348",
"; c #305741",
": c #315C43",
"> c #336446",
", c #396641",
"< c #366947",
"1 c #3A6C45",
"2 c #376848",
"3 c #3C6F48",
"4 c #3D7346",
"5 c #3D7048",
"6 c #417545",
"7 c #437C46",
"8 c #487F43",
"9 c #447549",
"0 c #467A48",
"q c #4C7E4A",
"w c #468146",
"e c #498546",
"r c #4D8B46",
"t c #4B8248",
"y c #4F8848",
"u c #518E45",
"i c #53844B",
"p c #548B49",
"a c #5C8C4C",
"s c #539345",
"d c #599547",
"f c #569845",
"g c #5C9B47",
"h c #5C944A",
"j c #628F4E",
"k c #619F47",
"l c #63954C",
"z c #649D4A",
"x c #6A9D4D",
"c c #6C9750",
"v c #6E9A50",
"b c #719E50",
"n c #66A249",
"m c #6CA64B",
"M c #6FA84B",
"N c #71A44D",
"B c #74AB4C",
"V c #79AE4E",
"C c #7DB04F",
"Z c #76A350",
"A c #7CA652",
"S c #7DAB51",
"D c #80B24F",
"F c #84AD53",
"G c #84B551",
"H c #89B652",
"J c #8CBA53",
"K c #93BD54",
"L c #97C055",
"P c #9CC356",
"I c #9FC458",
"U c #A0C657",
"Y c #A2C758",
"T c #A3C858",
/* pixels */
"KBIIVLKVITLVPHIIVLGITGGPHTLVJLIPVLKJTDGJPTLVIGGTJB",
"YTTULYYPTILITPPIITIIIPIYPIYYIIIIITIPYTTIITILTIPTTT",
"YUHLCGLDIICGLCGTILJIKSKJVLYIDKTJCLDCYYPDPLCCLSGYTI",
"HYCmIBgJJcKBnHLMPBPCbKnnPCCPVInGHkBIVJGHLnJInHFZIT",
"IKImhq4mg3pq5mgrnplu4l4tBurxile0h<hmehljssLh<aqFPL",
"TJGa4r6w4we77w4<47w4r7e4e<41e47r4w9w<44e44p4we9xCL",
"KTH9su4<wf78f78s47f7r4rs4rr4rs7r4sr4se4sww4eesehPT",
"KYYGu4r4s7>>74sw><74<<<w7s4><e4<>47er<>4werer<tJIY",
"KIlKk811,#*=+@1*$*$=#=$+%1$*%=$o=#+:>#=#::1:744tBT",
"KLazfs%#@@@#++@@o##@X#@@+#@#@#+##+@@#@#@#+#o1fsuBI",
"HBGKhe:+#@#$$$$+#-$@##-#$$+$-$@#&$+###-$@##+1yNPBV",
"mGnBz:X###$-$$-##&#$$&-$$-#$$#$#$&#&-$%-###++6MmmJ",
"ITJgr1X$$##$##$$$#$&$$$@#$#$#$&####$$+$$##++o8rnPT",
"IGLS78:#####$$#+&#@$@@+@@+$&####&-&+#$@@#$$@,8iLJJ",
"VDmes8o###$&#$+++@+@+@++..#+@#####++$$$-$$$+OuraBL",
"CJIa4=X$-$&$++..X..+   ++ . .+.. + ++++&$#++o<4NIC",
"KBHS8:#+$$$#++++@.    .@.    +   ++ ++##$##+O1pGGB",
"TIHmf8#++$&&#+  ... .+... ++.+.     ++#--$-#OrsVLI",
"LmJK08;+$#$$+#+  ++.+@ .+ .+.  ++  +++#$$###47aYVB",
"CGkGp>+$-##$#+++ ++  .          +  +++#$#$$+X4xCnJ",
"IKBmss%+###-$#++ .             .+  ++#&&###+<shBVP",
"BnCPz4%+#$$####+.++            ++  +####$##+>4SLmm",
"CLmkg3+##$-###+    .           .+  ++##$-$#+#8gkCP",
"TIIn4>#$$#$#$++ .+            ..  +++$$####+%4eCII",
"LCGZerO##+####+  X               +++++#$#$$+6riGVG",
"BJV7s,+$$#--#+     X             +  ++#&&@$+owepGL",
"GCIx1:o$-$$$+#++X  .              +++++$$@@+o<9FPn",
"LHCmr>#X#$$##+++#.               ++ +++$$#%#o4sVCL",
"TLLCsuO+#$&$#@+   .                 +##--#$#,sfJLL",
"JnCK9,*+$$#$#@@. +#.           X+ ++###$#$$@O1hImm",
"GLkBf7X@$##&#@   ..              ++ ++#&@$$+ornmMP",
"PCDCafO+###$@@+. +X .X  @.  X  .+ ++++#$#@#+4sgGBL",
"nmmJx>o+##$&##+. +   +      ++ ++  +++$-$@@@$9SGnM",
"LTCfs6X$$$-$@@..++   + +  ++ +   ++ ++@&-$@@#tdgLT",
"TKIV6,*#$#$#@++++ ++   ++   + ++ ++ +++####@:5tJPL",
"GBBluuO#+#-$#+. ++ +++ +  + ++++ +  ++$-$$&+,spxmH",
"VLJqw:X$-#$&$$++#@@@@@@+++####+#++#+$&$$$#@o+47hLJ",
"GBLS1>o#-#++@$##-##&##@@++#&+$$$+@$@###@+@#+->qJLn",
"YLCns1+###$-##-$@$#-$$$##&###$&&@$@$&+$&##-#o8fNGI",
"UDLJyrOo###-&$&#$-$@$$-$$&@&-$##&&#$&$-&###+6rdIJH",
"GBmKrO+#&&#$$##+#$$+##$#@#@$$###$$@##@$$#$$@#1lJnV",
"KKdhk9#@$###+#+$$##$#@#+@#$#+$$##@#@$$@@&-$X*rnumI",
"Hnmbr7%#&###&$$-$##$$+$&#$-##$$#@$$#&$o#$$@#:eyAkV",
"HDBUx<*##+++#++#X@+++++#+$++++XX+##+#+XX@@@#=9FLmG",
"LmfVA9$-@*#-#-#@&#*o*#*#%X$o$$$$$$o$+&@&o+$&%aFngS",
"BBHh>>41=w7>=46>===>e4>=w<>=>=4e<>,w>>=>=74<>>1ZHm",
"PCKK71r44fw547d6>>>es445rs<>>>sr144se>>>4f7w45hICG",
"JglGs4<<4w5se>w44e<w47f4<e<8w<r<rs<4w<e448<er9mCfn",
"nnfgld14<17y54<>5se<<rw54<>wf425u443<<rs<tz74vhygB",
"KIgVYzZnqSe4Zn4w4wthB4qSr474rwZh4hV4w47etLFw7AKamT"
};
