/* XPM */
static char *result[] = {
/* columns rows colors chars-per-pixel */
"50 50 154 2 ",
"   c #561E11",
".  c #721600",
"X  c #761C00",
"o  c #7B1E00",
"O  c #5A220F",
"+  c #592613",
"@  c #5E2B14",
"#  c #6B2106",
"$  c #672008",
"%  c #6D2D0B",
"&  c #742302",
"*  c #7C2200",
"=  c #762D05",
"-  c #7D2900",
";  c #76350C",
":  c #7E350B",
">  c #7D3909",
",  c #602510",
"<  c #6B3614",
"1  c #6F3914",
"2  c #653619",
"3  c #693718",
"4  c #673819",
"5  c #693818",
"6  c #743A12",
"7  c #892701",
"8  c #832B00",
"9  c #8D2B03",
"0  c #9B2500",
"q  c #962D07",
"w  c #9C2C03",
"e  c #843503",
"r  c #8C3500",
"t  c #843A03",
"y  c #8D3D02",
"u  c #823B0B",
"i  c #903004",
"p  c #923E02",
"a  c #A62C05",
"s  c #A8300A",
"d  c #A33B09",
"f  c #AB3F08",
"g  c #B23D0C",
"h  c #8E4300",
"j  c #87410E",
"k  c #944605",
"l  c #9A4305",
"z  c #924905",
"x  c #9A4904",
"c  c #9B4009",
"v  c #9B4B09",
"b  c #9C5607",
"n  c #9F500A",
"m  c #A34104",
"M  c #AD4307",
"N  c #A14C06",
"B  c #AE410C",
"V  c #A24D0A",
"C  c #AE4A0B",
"Z  c #B3420E",
"A  c #B64E0E",
"S  c #BB4E0E",
"D  c #AD5B06",
"F  c #A2540B",
"G  c #AC5208",
"H  c #A4590B",
"J  c #AC5D0B",
"K  c #B75E0C",
"L  c #BB580E",
"P  c #B45D11",
"I  c #B95C11",
"U  c #AC600E",
"Y  c #B1640E",
"T  c #BA610E",
"R  c #BC6D0E",
"E  c #B4710F",
"W  c #B36410",
"Q  c #BD6612",
"!  c #B56C12",
"~  c #BE6A13",
"^  c #BD7414",
"/  c #BB7A11",
"(  c #C15211",
")  c #C25E12",
"_  c #C36D13",
"`  c #C27411",
"'  c #C97516",
"]  c #C47C13",
"[  c #C5771A",
"{  c #C08113",
"}  c #C78B16",
"|  c #CE8817",
" . c #C9851A",
".. c #C5881A",
"X. c #CC8A1A",
"o. c #D38C1A",
"O. c #D19917",
"+. c #D5901A",
"@. c #DC9619",
"#. c #D49A1E",
"$. c #DA9B1C",
"%. c #D6A41C",
"&. c #DEA21D",
"*. c #DAAA1C",
"=. c #E2A41E",
"-. c #EDA91C",
";. c #D69324",
":. c #DE9D22",
">. c #DDA322",
",. c #D6A821",
"<. c #DEA823",
"1. c #DDA62F",
"2. c #DFB82A",
"3. c #E5A721",
"4. c #E5AB22",
"5. c #EBAD22",
"6. c #E6B525",
"7. c #EBB323",
"8. c #E6BA25",
"9. c #E9BA26",
"0. c #E5B529",
"q. c #EDB728",
"w. c #ECBE29",
"e. c #F3BB25",
"r. c #F9BE23",
"t. c #ECC225",
"y. c #EEC826",
"u. c #EEC22A",
"i. c #F1C526",
"p. c #FCC425",
"a. c #F2C926",
"s. c #F4CE2A",
"d. c #FACC2A",
"f. c #F7D32B",
"g. c #FBD22D",
"h. c #FBDA2F",
"j. c #E3C331",
"k. c #F2C633",
"l. c #F5CD30",
"z. c #F2CB3C",
"x. c #F7D433",
"c. c #FBDB34",
"v. c #F6D33D",
"b. c #F5DB3A",
"n. c #FDE336",
"m. c #FFE937",
"M. c #FCE33B",
"N. c #FFE93B",
"B. c #FFE740",
"V. c #FFF243",
"C. c #FFFD45",
"Z. c #FFFE4C",
"A. c #FFFF53",
"S. c None",
/* pixels */
"S.S.S.S.S.S.S.S.S.S.S.S.S.S.S.S.S.S.S.S.S.S.S.S.S.S.S.S.S.S.S.S.S.S.S.S.S.S.S.S.S.S.S.S.S.S.S.S.S.S.",
"S.S.S.S.S.S.S.S.S.S.S.S.S.S.S.S.S.S.S.S.S.S.S.S.S.S.S.S.S.S.S.S.S.S.S.S.S.S.S.S.S.S.S.S.S.S.S.S.S.S.",
"S.S.S.S.S.S.S.S.S.S.S.S.S.S.S.S.S.S.S.S.S.S.S.S.S.S.S.S.S.S.S.S.S.S.S.S.S.S.S.S.S.S.S.S.S.S.S.S.S.S.",
"S.S.S.S.S.S.S.S.S.S.S.S.S.S.S.S.S.S.S.S.S.S.S.S.S.S.S.S.S.S.S.S.S.S.S.S.S.S.S.S.S.S.S.S.S.S.S.S.S.S.",
"S.S.S.S.S.S.S.S.S.S.S.S.S.S.S.S.S.S.S.S.S.S.S.S.S.S.S.S.S.S.S.S.S.S.S.S.S.S.S.S.S.S.S.S.S.S.S.S.S.S.",
"S.S.S.S.S.S.S.S.S.S.S.S.S.S.S.S.S.S.S.S.S.S.S.S.S.S.S.S.S.S.S.S.S.S.S.S.S.S.S.S.S.S.S.S.S.S.S.S.S.S.",
"S.S.S.S.S.S.S.S.S.S.S.S.S.S.S.S.S.S.S.S.S.S.S.S.S.S.S.S.S.S.S.S.S.S.S.S.S.S.S.S.S.S.S.S.S.S.S.S.S.S.",
"S.S.S.S.S.S.S.S.S.S.S.S.S.S.S.S.S.S.S.S.S.S.S.S.S.S.S.S.S.S.S.S.S.S.S.S.S.S.S.S.S.S.S.S.S.S.S.S.S.S.",
"S.S.S.S.S.S.S.S.S.S.S.S.S.S.S.S.S.S.S.S.S.S.S.S.S.S.S.S.S.S.S.S.S.S.S.S.S.S.S.S.S.S.S.S.S.S.S.S.S.S.",
"S.S.S.S.S.S.S.S.S.S.S.S.S.S.S.S.S.S.S.S.S.S.S.S.S.S.S.S.S.S.S.S.S.S.S.S.S.S.S.S.S.S.S.S.S.S.S.S.S.S.",
"S.S.S.S.S.S.S.S.S.S.S.S.S.S.S.S.S.S.S.S.S.S.S.S.S.S.S.S.S.S.S.S.S.S.S.S.S.S.S.S.S.S.S.S.S.S.S.S.S.S.",
"S.S.S.S.S.S.S.S.S.S.S.S.S.S.S.S.S.S.S.S.S.S.S.S.S.S.S.S.S.S.S.S.S.S.S.S.S.S.S.S.S.S.S.S.S.S.S.S.S.S.",
"S.S.S.S.S.S.S.S.S.S.S.S.S.S.S.S.S.S.S.S.S.S.S.S.S.S.S.S.S.S.S.S.S.S.S.S.S.S.S.S.S.S.S.S.S.S.S.S.S.S.",
"S.S.S.S.S.S.S.S.S.S.S.S.S.S.S.S.S.S.S.S.S.S.S.S.* r y 8 * S.S.S.S.S.S.S.S.S.S.S.S.S.S.S.S.S.S.S.S.S.",
"S.S.S.S.S.S.S.S.S.S.S.S.S.S.S.S.S.S.S.S.S.X x ..4.w.u.0.#.U 8 S.S.S.S.S.S.S.S.S.S.S.S.S.S.S.S.S.S.S.",
"S.S.S.S.S.S.S.S.S.S.S.S.S.S.S.S.S.S.S.S.p #.c.V.A.A.A.Z.V.B.k.! X S.S.S.S.S.S.S.S.S.S.S.S.S.S.S.S.S.",
"S.S.S.S.S.S.S.S.S.S.S.S.S.S.S.S.S.S.X J d.N.M.N.z.1.;.>.v.A.Z.Z.:.* S.S.S.S.S.S.S.S.S.S.S.S.S.S.S.S.",
"S.S.S.S.S.S.S.S.S.S.S.S.S.S.S.S.S.X J g.M.n.q.K m G ! W G [ z.Z.C.>.X S.S.S.S.S.S.S.S.S.S.S.S.S.S.S.",
"S.S.S.S.S.S.S.S.S.S.S.S.S.S.S.S.S.N p.x.n.:.w Y j.b.b.b.0.! m :.V.C. .. S.S.S.S.S.S.S.S.S.S.S.S.S.S.",
"S.S.S.S.S.S.S.S.S.S.S.S.S.S.S.S.e &.d.c.3.0 { N.c.w.8.w.x.M.,.0 ;.C.N.v S.S.S.S.S.S.S.S.S.S.S.S.S.S.",
"S.S.S.S.S.S.S.S.S.S.S.S.S.S.S.# U a.x.w.a ` c.9.6.8.8.w.8.0.c.%.w 0.C.>.o S.S.S.S.S.S.S.S.S.S.S.S.S.",
"S.S.S.S.S.S.S.S.S.S.S.S.S.S.S.& ..d.h.' M t.u.8.6.w.8.9.8.8.6.c.~ f x.n.F S.S.S.S.S.S.S.S.S.S.S.S.S.",
"S.S.S.S.S.S.S.S.S.S.S.S.S.S.S.> $.f.a.A ` y.9.8.w.6.w.0.9.8.w.u.6.d o.N.X.S.S.S.S.S.S.S.S.S.S.S.S.S.",
"S.S.S.S.S.S.S.S.S.S.S.S.S.S.% k $.f.w.S ` w.w.9.9.8.8.9.9.9.9.6.s.P I l.<.8 S.S.S.S.S.S.S.S.S.S.S.S.",
"S.S.S.S.S.S.S.S.S.S.S.S.S.S.1 h | a.t.( R t.w.9.0.9.6.9.9.6.6.w.s.^ C q.7.y S.S.S.S.S.S.S.S.S.S.S.S.",
"S.S.S.S.S.S.S.S.S.S.S.S.S.S.< h ] e.i.) L 8.w.8.9.9.w.6.8.w.9.6.s...B 5.q.k S.S.S.S.S.S.S.S.S.S.S.S.",
"S.S.S.S.S.S.S.S.S.S.S.S.S.S.< t R 7.a.' g *.u.8.9.9.9.9.w.6.6.w.s._ Z 7.e.k S.S.S.S.S.S.S.S.S.S.S.S.",
"S.S.S.S.S.S.S.S.S.S.S.S.S.S.2 t D =.i.$.g ] w.t.6.9.8.9.6.9.6.w.y.V I e.5.y S.S.S.S.S.S.S.S.S.S.S.S.",
"S.S.S.S.S.S.S.S.S.S.S.S.S.S.2 > x +.7.e.R C %.t.u.6.8.9.9.6.w.f.o.q +.e.$.8 S.S.S.S.S.S.S.S.S.S.S.S.",
"S.S.S.S.S.S.S.S.S.S.S.S.S.S.S.6 y Y 7.7.&.s K *.w.t.w.9.9.w.s.*.i Q 7.e.^ S.S.S.S.S.S.S.S.S.S.S.S.S.",
"S.S.S.S.S.S.S.S.S.S.S.S.S.S.S.3 t y +.7.7.+.w b O.q.q.e.i.w.} 9 K 7.4.e.v S.S.S.S.S.S.S.S.S.S.S.S.S.",
"S.S.S.S.S.S.S.S.S.S.S.S.S.S.S.S.6 r v 5.7.7.$.l e H / { E k 7 ~ q.3.e.o.& S.S.S.S.S.S.S.S.S.S.S.S.S.",
"S.S.S.S.S.S.S.S.S.S.S.S.S.S.S.S.2 u 8 U e.7.7.5.' F k z v Y $.e.:.7.e.r S.S.S.S.S.S.S.S.S.S.S.S.S.S.",
"S.S.S.S.S.S.S.S.S.S.S.S.S.S.S.S.S.4 t 8 P 5.e.4.7.7.=.=.7.e.5.$.e.r.j S.S.S.S.S.S.S.S.S.S.S.S.S.S.S.",
"S.S.S.S.S.S.S.S.S.S.S.S.S.S.S.S.S.S.3 t 8 c X.e.e.7.7.5.5.3.e.r.@.:   S.S.S.S.S.S.S.S.S.S.S.S.S.S.S.",
"S.S.S.S.S.S.S.S.S.S.S.S.S.S.S.S.S.S.S.4 u 8 8 V ] $.=.5.7.-.o.H $ + S.S.S.S.S.S.S.S.S.S.S.S.S.S.S.S.",
"S.S.S.S.S.S.S.S.S.S.S.S.S.S.S.S.S.S.S.S.2 6 t - 8 r l N x u , + S.S.S.S.S.S.S.S.S.S.S.S.S.S.S.S.S.S.",
"S.S.S.S.S.S.S.S.S.S.S.S.S.S.S.S.S.S.S.S.S.S.4 < ; ; = % @ @ S.S.S.S.S.S.S.S.S.S.S.S.S.S.S.S.S.S.S.S.",
"S.S.S.S.S.S.S.S.S.S.S.S.S.S.S.S.S.S.S.S.S.S.S.S.S.3 4 S.S.S.S.S.S.S.S.S.S.S.S.S.S.S.S.S.S.S.S.S.S.S.",
"S.S.S.S.S.S.S.S.S.S.S.S.S.S.S.S.S.S.S.S.S.S.S.S.S.S.S.S.S.S.S.S.S.S.S.S.S.S.S.S.S.S.S.S.S.S.S.S.S.S.",
"S.S.S.S.S.S.S.S.S.S.S.S.S.S.S.S.S.S.S.S.S.S.S.S.S.S.S.S.S.S.S.S.S.S.S.S.S.S.S.S.S.S.S.S.S.S.S.S.S.S.",
"S.S.S.S.S.S.S.S.S.S.S.S.S.S.S.S.S.S.S.S.S.S.S.S.S.S.S.S.S.S.S.S.S.S.S.S.S.S.S.S.S.S.S.S.S.S.S.S.S.S.",
"S.S.S.S.S.S.S.S.S.S.S.S.S.S.S.S.S.S.S.S.S.S.S.S.S.S.S.S.S.S.S.S.S.S.S.S.S.S.S.S.S.S.S.S.S.S.S.S.S.S.",
"S.S.S.S.S.S.S.S.S.S.S.S.S.S.S.S.S.S.S.S.S.S.S.S.S.S.S.S.S.S.S.S.S.S.S.S.S.S.S.S.S.S.S.S.S.S.S.S.S.S.",
"S.S.S.S.S.S.S.S.S.S.S.S.S.S.S.S.S.S.S.S.S.S.S.S.S.S.S.S.S.S.S.S.S.S.S.S.S.S.S.S.S.S.S.S.S.S.S.S.S.S.",
"S.S.S.S.S.S.S.S.S.S.S.S.S.S.S.S.S.S.S.S.S.S.S.S.S.S.S.S.S.S.S.S.S.S.S.S.S.S.S.S.S.S.S.S.S.S.S.S.S.S.",
"S.S.S.S.S.S.S.S.S.S.S.S.S.S.S.S.S.S.S.S.S.S.S.S.S.S.S.S.S.S.S.S.S.S.S.S.S.S.S.S.S.S.S.S.S.S.S.S.S.S.",
"S.S.S.S.S.S.S.S.S.S.S.S.S.S.S.S.S.S.S.S.S.S.S.S.S.S.S.S.S.S.S.S.S.S.S.S.S.S.S.S.S.S.S.S.S.S.S.S.S.S.",
"S.S.S.S.S.S.S.S.S.S.S.S.S.S.S.S.S.S.S.S.S.S.S.S.S.S.S.S.S.S.S.S.S.S.S.S.S.S.S.S.S.S.S.S.S.S.S.S.S.S.",
"S.S.S.S.S.S.S.S.S.S.S.S.S.S.S.S.S.S.S.S.S.S.S.S.S.S.S.S.S.S.S.S.S.S.S.S.S.S.S.S.S.S.S.S.S.S.S.S.S.S."
};
