/* XPM */
static char *result[] = {
/* columns rows colors chars-per-pixel */
"50 50 215 2 ",
"   c #010101",
".  c #010807",
"X  c #0C0907",
"o  c #040709",
"O  c #050909",
"+  c #0B0C0C",
"@  c #1A0F0E",
"#  c #0A130E",
"$  c #17100B",
"%  c #1D130B",
"&  c #0C0E11",
"*  c #0E1212",
"=  c #0D1718",
"-  c #121413",
";  c #1B1612",
":  c #1A1A16",
">  c #131619",
",  c #151A1A",
"<  c #1A1C1C",
"1  c #20150C",
"2  c #27180E",
"3  c #241A15",
"4  c #291B16",
"5  c #321C16",
"6  c #29211A",
"7  c #2C231C",
"8  c #332016",
"9  c #33251C",
"0  c #39251A",
"q  c #141E20",
"w  c #1C1E20",
"e  c #1D2223",
"r  c #1C2529",
"t  c #1E292B",
"y  c #222424",
"u  c #262927",
"i  c #282C27",
"p  c #252728",
"a  c #25292B",
"s  c #2A2C2D",
"d  c #332A21",
"f  c #3A2D21",
"g  c #2B312F",
"h  c #3B3223",
"j  c #252E30",
"k  c #2C2F30",
"l  c #273031",
"z  c #2D3233",
"x  c #2F3836",
"c  c #333536",
"v  c #333639",
"b  c #343A3B",
"n  c #383839",
"m  c #3A3B3D",
"M  c #412A18",
"N  c #632E16",
"B  c #6B3B18",
"V  c #6C3C1D",
"C  c #713B1C",
"Z  c #443325",
"A  c #4B3626",
"S  c #423529",
"D  c #4A3728",
"F  c #4B3929",
"G  c #5D3B25",
"H  c #533C2B",
"J  c #5B3A2A",
"K  c #6D3826",
"L  c #703B20",
"P  c #76451F",
"I  c #4C412F",
"U  c #5A422E",
"Y  c #564231",
"T  c #5B4432",
"R  c #5D4A34",
"E  c #564B38",
"W  c #5D4A3A",
"Q  c #6A442B",
"!  c #774727",
"~  c #634B35",
"^  c #674A34",
"/  c #624C3A",
"(  c #774D35",
")  c #65523A",
"_  c #6C533C",
"`  c #73553E",
"'  c #7A573C",
"]  c #73593D",
"[  c #373E41",
"{  c #3B3E41",
"}  c #3D4143",
"|  c #444546",
" . c #434947",
".. c #464648",
"X. c #45494A",
"o. c #4A4C4D",
"O. c #4D4E51",
"+. c #4F5051",
"@. c #4C5354",
"#. c #525355",
"$. c #555956",
"%. c #545659",
"&. c #555B5B",
"*. c #5A5A5D",
"=. c #6B5640",
"-. c #6B5B42",
";. c #765641",
":. c #745C43",
">. c #7C5C42",
",. c #5E6358",
"<. c #756244",
"1. c #7D6445",
"2. c #7D684F",
"3. c #666C58",
"4. c #746C55",
"5. c #5D5C61",
"6. c #615F64",
"7. c #5D6363",
"8. c #5E6769",
"9. c #626365",
"0. c #636A66",
"q. c #63656A",
"w. c #69656C",
"e. c #656A6B",
"r. c #6A6B6D",
"t. c #6B706F",
"y. c #727161",
"u. c #6C6D71",
"i. c #726E75",
"p. c #6C7272",
"a. c #737377",
"s. c #737579",
"d. c #78767C",
"f. c #76797C",
"g. c #7A7B7E",
"h. c #833B25",
"j. c #844C1E",
"k. c #834321",
"l. c #884425",
"z. c #854C22",
"x. c #8A4B24",
"c. c #834D2A",
"v. c #8B4C2B",
"b. c #8B5124",
"n. c #865129",
"m. c #8D532D",
"M. c #92522D",
"N. c #894E31",
"B. c #8E5431",
"V. c #875A3E",
"C. c #945634",
"Z. c #945934",
"A. c #945D3D",
"S. c #95633E",
"D. c #99653E",
"F. c #9E693E",
"G. c #895F44",
"H. c #836346",
"J. c #8D6343",
"K. c #8C674C",
"L. c #816A4A",
"P. c #8B6C4C",
"I. c #966440",
"U. c #9D6745",
"Y. c #9D6C46",
"T. c #946D4D",
"R. c #9D6E4A",
"E. c #93774F",
"W. c #9D714D",
"Q. c #966F51",
"!. c #897557",
"~. c #9D7452",
"^. c #9B7B53",
"/. c #997659",
"(. c #A06E47",
"). c #A26E49",
"_. c #A77347",
"`. c #A3744C",
"'. c #A37653",
"]. c #A57955",
"[. c #A97C55",
"{. c #A67D59",
"}. c #AB7E59",
"|. c #9C8257",
" X c #AB8457",
".X c #A5815B",
"XX c #AD815A",
"oX c #B1825C",
"OX c #B48959",
"+X c #B58B5D",
"@X c #AF925E",
"#X c #B2955E",
"$X c #A78260",
"%X c #B38661",
"&X c #B58862",
"*X c #B29565",
"=X c #BB9463",
"-X c #BB9863",
";X c #7A7B81",
":X c #817E85",
">X c #817D88",
",X c #798183",
"<X c #838285",
"1X c #84838A",
"2X c #89888B",
"3X c #8C8690",
"4X c #8C8A92",
"5X c #918E94",
"6X c #959599",
"7X c #9E9DA1",
"8X c #A8A4AC",
"9X c #AEAAB2",
"0X c #B1AEB4",
"qX c #B5B3B9",
"wX c #C3BEC7",
/* pixels */
"                      O + - & X X p :Xd.| + a.:Xd.} u.} a O + - O   O                               ",
"                  - n y +.9X3Xi.#.m qX3Xw., 4X:X5X9.7.b a n r.2X6.y + o w s a +                     ",
"                o *.wX;X$.g.1Xd.5.j #.w.9.O.z g a.e.x u e.,Xq.8.%.{ : $.>X5.k c +                   ",
"            O < { s.u.p.6...m $.} z & w y y - > w w * * e.@.} } w : g.wX1X%.&.{ e y                 ",
"            a p.p.t.8.} a j + + & & : F F F A M A F H S - * + + + O ..6.s.q.u.*...w O +             ",
"        O : < | p.7.b * + - 4 ' Q >.K.XX}.}.}.m.[.}.}.}.H.1.H.! ' 7 X O m e.%.[ y - > & * O         ",
"      O *.8Xa.< a } e - W Q.T.`.b.}.[.'.[.'.'.j.).! W.'.[.{.}.M.'.T.T.Z + o.[ * u 2X6X{ z a O       ",
"      c 5X>Xa.o., + d _ >.[.}.R.j.[.].'.'.].'.z.R.d .X'.'.'.].m.R.[.[.[.U ; X { 8XqXw.*.m p s +     ",
"    y q.u.u.%.v + ; ` L.h W P.S.b.}.[.].'.].'.j.W.d *X'.`.'.].m.R.].'.{.M.J.d < w.u.z o.X.p #.p &   ",
"    u o.%.#.m e : >.K.~ <.=.-.) G _ :.{.[.[.'.c.^ / .X`.].'.].m.R.{.].].x.`.:.; O p X.} k , o.a < O ",
"  #.7X#.s y > & / &XI.c.>.;.R ) <.1._ ) Q. X[.n.7 *X'.'.'.].].m.R.].].].x.).oXH + > s | r.a.m } w O ",
"X w.5X*.u.%.  S {.{.I.B.XX`.c.K.U Y I !.9 ` `.b.5  X[.'.'.~.[.m.R.].].].x.(.{.].f   ;XqX1Xu.x O.y   ",
"< c ..5.6.| O F }.}.I.B..XR.c.`.m.^._ ] <.] ~ U ^ Q.'.'.'.].{.v.R.{.'.].x.R.].[.F O w.>X8.@.a @.s   ",
"w.2Xu.a.c O f ~.{.}.I.m.{.`.Z.).j. X[.H.~ ^ >.1.] ^ ! `.[.~.[.m.R.].'.].x.U.[.].'.0 + o.p.8.} a ..o ",
"o.p.p.&.e . F %X'.{.I.B.{.].{.R.z.{.[.'.`.'.' G _ #X1.~ ~.].].m.R.[.'.].x.R.[.[.oXZ   o.s.5.X.q ..O ",
"| 0.O.{ r O F XX'.}.I.B.{.].{.Y.z.].{.'.].].[.b.' ) E =.R W J.! W.}.[.}.x.(.S.F..XS   } X.z b < ..O ",
"s 5.O.X.c . D oX].{.I.N.{.'.].(.z.'.'.].].].'.j.'.W.! ~ _ <.:._ _ ` ` !.' !.1.P.,.e   } e.@.o.p | X ",
"<X0Xa.a.}   F oX].{.I.B.{.'.{.(.z.'.{.'.].'.'.j.`.'.l.`.:.] _ ~ :.1.9 e x l x c < +   2X9X;X5.p | O ",
"<X5X7.&.r . F oX'.{.I.B.{.].].R.l.}.'.'.U.[.'.j.`.].B.'.{.}.~.! Q ` 3   c y a < a u   *.u.b y * ..O ",
"%.f.t.&.r . S oX'.{.I.B.{.].{.U.l.=X~.U.x.[.[.j.`.[.^.].'.^.[.m.R.}.:._ 0 5 T <.h O   #.@.< s e | X ",
"c #.| c t + D oX[.{.I.B.{.].].T.h.=X'.I.C.].'.j.`.].].].'.'.].B.R.{.{.}.v.J J _ H.9   m m s < + ..O ",
"n q.#.m r O D oX'.{.I.B.{.].{.U.h.=X(.z.'.{.'.j.`.].'.'.[.~.[.v.R.'.'.[.x.).}.].>.3   n q.O.m < ..O ",
"r.8X<Xa.x   D oX[.{.I.m.{.].].(.l.=XY.z.].].].j.`.].'.].].'.].m.R.{.'.].x.R.].].oXZ   w.8Xg.e.l | X ",
"i.<X7.7.a . D oX'.{.I.m.{.'.].).c.}.R.z.].].'.j.~.].'.].'.~.[.m.R.{.'.{.l.Y.'.]. XZ   r.a.7.&.p | X ",
"9.g.0.9.j . D oX].].U.B..X'.].`.! R _.z.].[.`.j.`.[.'.'.].^.[.b.R.{.'.].x.Y.].].XXZ   6.p.8.7.p | O ",
"} e.*.X.j . D oX].].U.c.K.[.].`.B f +XN.].].].j.~.].'.].'.].{.b._.).'.[.x.Y.].].}.Z   } 8.O.} < | X ",
", y y y q # F %X[.}._.N ~ =X{.'.V f -X~.].].].j.`.].].].'.'.[.m.).J J. Xc.Y.].'.XXZ . > e e e - | X ",
"*.5Xa.$.l O F /.3.,.S 3 7 ) / '.V h -XW.'.].`.j.`.].'.'.'.~.{.B.`.h E. Xl.Y.].].XXZ   *.5Xr.%.p | + ",
"6X0Xu.w.l . S oX!.y.=.4 < -.].`.P f #X`.'.[.'.h.].[.'.'.'.~.{.b.`.S |. Xl.Y.'.'.oXZ   5X6Xe.7.a | o ",
"u.1X .%.v . F /.3.!.`.C J 2.W `.P ' [.].'.[.'.h.+X'.'.'.'.].{.C.J 1..X'.l.Y.{.'.}.Z   r.s.8.@.= ..o ",
"%.s.5.O.k . Y 2.Y &X`.N _ *Xf `.z.{.'.'.'.'.`.C +X'.'.'.].].[.B.2 ^.XX'.z.(.'.[.}.Z   X.p.8.o.< ..O ",
"{ %.5.5.z . F /.S ;.).K F E W _.z.[.].].[.'.[.h.+X'.'.'.'.~.{.B.8 P.}.].x.Y.'.[.XXZ   ..#.[ [ w | X ",
"< O.6.n = O F %X~.W f 4 6 H.{.).z.].].].'.].'.! OX].'.'.'.'.{.b.K.'.'.].x.Y.].].}.Z   u o.| s * | O ",
"r.0X6X7.a . F XX[.{.S.C ;.}.].).z.{.].'.].].`.j.`.].'.'.'.].].m.).{.'.].x.Y.].'.XXZ   q.9X4X5.w | X ",
"4X6X5.p.b . F XX'.[.D.M.}.'.}.).z.].[.'.'.].'.z.U E.'.'.'.~.[.v.R.'.'.{.z.R.].'.XXZ   2X<X&.r.z | X ",
"a.1X7.&.r . F %XI.Z.S.C.=X'.{.Y.z.].].'.].].].n.8 OX].'.'.].].m.R.{.'.].l.Y.].].}.Z   i.s.7.@.< ..O ",
"9.g.e.&.t . D %XA.B.I.C.=X'.].R.z.].].].].'.].c.8 @X'.'.'.].].m.W.{.'.].x.Y.].].XXZ   *.s.e.@., ..O ",
"y  . .c r + D XX'.'.A.C.=XW.{.Y.z.[.].~.'.[.'.c.8 @X].'.'.^.[.m.R.'.'.[.z.(.[.]..XS . , } } x , ..X ",
"n *.O.O.z . D %X'.}.A.C.=X~.].(.j.[.].'.].].].c.6 .X`.'.'.].].m.R.{.[.!.:.4.!.!.$.6   o.<X@.} e | O ",
"w.4Xp.g.}   D XX'.}.I.C.}.'.].(.j.].].].'.].].j.V.~.'.'.'.m.W.M.W.}.T i x z x z < . . <X6X8.t.v | X ",
"w.1X0.e.k . D oX'.}.A.m.}.'.{.Y.z.[.'.'.'.].'.j.'.].'.'.'.z.).M.W.}.9   g 6 g w u y   %.w.u.q.a | O ",
"#.f.t.&.r . F oX'.{.I.B.{.'.{.Y.z.}.'.'.].].'.j.`.[.'.].'.k.'.M.R.}.=.Y A T R T 6 .   5.O.6.q.= ..O ",
"o.p.7.&.t . D oX].{.I.B.{.'.{.).c.E.[.'.'.].'.j.`.].'.].~.z.`.M.R.[.[.}.x.`.}.}.~.d . > 5.O.v w ..X ",
"u c e a r + D oX].{.I.B.{.'.{.).V h -X`.'.].'.j.`.].'.[.`.z.`.M.R.[.'.[.x.(.[.].XXS o + m v y > ..O ",
"| q.9.5.j . F oX[..XD.m.{.'.{.`.B h -XW.'.[.`.j.`.].'.].'.z._.M.R.{.'.'.l.R.].~.}.Z   O.d.7.%.a ..O ",
"w.#.5.u.< . D oX'.|.D.B..X'.[.`.L f @X~.'.'.].z.'.].'.].'.j.W.m.R.{.'.].x.Y.[.].oXZ   %.s.e.@., ..O ",
"k #.s.*.r . F oX[.{.D.m.{.'.[.W.l.;.[.'.{.W.'.K W.[.'.'.'.U.].M.R.[.].].x._.'.'.J.5   &.a.r.} + ..X ",
"#.;Xe.O.t . F &X$XXXV.( oX}.oXW.K ;.}.[.G.K K 0 ~.}.}.}.}.}.XXQ R.XX}.XXQ J.N.K K 1   o.s.8.z o ..X ",
"o.0.| | j # 3 R T R d 4 T T T D ; Y T H 5 5 8 % F T T Y U T H 3 f R Y Y 3 5 0 5 0 $   ..7.s * O ..O ",
"- - - - * # 1 % % % 1 1 % % % 1 1 % % 1 1 1 1 2 % % % % % % % 1 % @ % % 1 % 1 1 % 1 + - - O . O k   "
};
