/* XPM */
static char *_b777ca4550644a8ff79c32bf33dc4b5cblCGyjUwGh9lXtU[] = {
/* columns rows colors chars-per-pixel */
"50 50 173 2 ",
"   c #010101",
".  c #070807",
"X  c #070908",
"o  c #0A0C0A",
"O  c #120908",
"+  c #180E0C",
"@  c #0D120F",
"#  c #0F1511",
"$  c #121513",
"%  c #1B1513",
"&  c #161B16",
"*  c #1D1916",
"=  c #171C18",
"-  c #1B1D1A",
";  c #221A16",
":  c #2C1B15",
">  c #231B19",
",  c #2A1D1A",
"<  c #1D211D",
"1  c #25221F",
"2  c #2E211D",
"3  c #33221C",
"4  c #3C221A",
"5  c #3B281F",
"6  c #1E2720",
"7  c #222422",
"8  c #282320",
"9  c #262A27",
"0  c #2C2C2C",
"q  c #372720",
"w  c #3B2620",
"e  c #352922",
"r  c #3C2A22",
"t  c #27332A",
"y  c #2A352C",
"u  c #35312F",
"i  c #2D3430",
"p  c #2E3930",
"a  c #323C33",
"s  c #3C3934",
"d  c #42261D",
"f  c #46291E",
"g  c #442B22",
"h  c #4C2C22",
"j  c #522D22",
"k  c #4C3125",
"l  c #463329",
"z  c #4D3528",
"x  c #543225",
"c  c #5D3326",
"v  c #54352A",
"b  c #5B362A",
"n  c #553A2C",
"m  c #5D3D2F",
"M  c #603527",
"N  c #623528",
"B  c #633C2C",
"V  c #6A3E2E",
"C  c #673F30",
"Z  c #334237",
"A  c #364339",
"S  c #3B433C",
"D  c #3A493D",
"F  c #5D402F",
"G  c #41433C",
"H  c #5A4234",
"J  c #64412E",
"K  c #6C412F",
"L  c #70432E",
"P  c #644232",
"I  c #6C4232",
"U  c #664835",
"Y  c #6B4A37",
"T  c #6C4C38",
"R  c #724431",
"E  c #764933",
"W  c #7D4E36",
"Q  c #734B3A",
"!  c #794E39",
"~  c #7F5036",
"^  c #75513E",
"/  c #7C533D",
"(  c #3F4440",
")  c #3E4C41",
"_  c #424640",
"`  c #494641",
"'  c #434D45",
"]  c #4B4D4B",
"[  c #445145",
"{  c #465449",
"}  c #4A554C",
"|  c #4C5A4E",
" . c #4E5651",
".. c #4E5A51",
"X. c #515753",
"o. c #535D55",
"O. c #565D59",
"+. c #705543",
"@. c #7E5643",
"#. c #7B5945",
"$. c #7F5C48",
"%. c #4F6052",
"&. c #536155",
"*. c #576259",
"=. c #5A645C",
"-. c #5C6A5D",
";. c #5F6562",
":. c #5F6A61",
">. c #616764",
",. c #636B64",
"<. c #676E69",
"1. c #696E6B",
"2. c #657365",
"3. c #677069",
"4. c #6B746C",
"5. c #6E7A6F",
"6. c #6E7471",
"7. c #6F7970",
"8. c #717673",
"9. c #747B75",
"0. c #767C79",
"q. c #7A7D7C",
"w. c #804F37",
"e. c #815137",
"r. c #845439",
"t. c #88573C",
"y. c #87593E",
"u. c #8C5B3D",
"i. c #815946",
"p. c #8E5E41",
"a. c #875F4A",
"s. c #905F42",
"d. c #8F6143",
"f. c #87604A",
"g. c #8A624B",
"h. c #916244",
"j. c #946649",
"k. c #96694B",
"l. c #886550",
"z. c #966F56",
"x. c #9A6F52",
"c. c #977056",
"v. c #9C7256",
"b. c #9C7359",
"n. c #A07659",
"m. c #A1795D",
"M. c #A27B60",
"N. c #778077",
"B. c #7C817D",
"V. c #80827F",
"C. c #7F7F81",
"Z. c #7F8381",
"A. c #828584",
"S. c #848985",
"D. c #868688",
"F. c #878988",
"G. c #8A8C8C",
"H. c #8D8D8E",
"J. c #8C928D",
"K. c #8F8D91",
"L. c #908F92",
"P. c #8E9090",
"I. c #929295",
"U. c #939395",
"Y. c #959596",
"T. c #949895",
"R. c #969698",
"E. c #99959A",
"W. c #979899",
"Q. c #9B9A9C",
"!. c #9F9EA0",
"~. c #A19FA3",
"^. c #A2A2A3",
/* pixels */
"                                      . o @ $ @ # $ @ @ @ o . .                                     ",
"                            . . X $ 7 9 ( o.S >.4.4.=.A  .] 9 7 - X . .                             ",
"                      X o $ A Z A <.Y.Y.!.J.} Q.Q.T.J...0.^.I.R.q.S a S & o .                       ",
"                  @ < y -.4.J.7.4.q.K.E.!.S.D 5.G.S.G.} 4.^.E.I.B.8.4.J.8.:.a - $ .                 ",
"              . - t { F.W.H.Z.J.=.&.B.F.A.1.y *.>.4.,.Z O.A.S.S.-.*.Y.A.G.R.I.-.y 6 o               ",
"          . = ' -.{ [ 8.B.q.B.A.A.] a [ G 3 : 3 3 3 3 : 3 s } G a C.F.Z.q.B.0.o.) =.o.< X           ",
"      . @ i 6.W.H.A.0.} { 4.4.G u r f f j M M M M M M c M j f f f u s >.6.o.[ <.A.F.R.Z.S @ .       ",
"    o & t 4.I.F.0.D.H.X.< e e h j c M N N N N N N N N N M N N N c j j r e 1 } A.H.q.B.H.0.a & X     ",
"X $ y D ) ' ,.9.q.0.} ; d c c M B N B R W ~ E V i.r.W W V ! i.B B B N c c h > S 8.0.0.q.} ) ) p = . ",
"$ Z :.Y.W.4.} { o.` 5 x N N V L W R i.x.h.k.r.I c.h.u.t.R i.v.t.r.e.V Q B N c f s } [ [ >.I.H.3.) < ",
"' S.I.A.K.~.G._ , h c N B g.p.h.u.R f.v.h.k.r.I c.h.u.u.R i.v.p.h.r.I z.i.W K N j 3 u A.!.Q.L.Q.I.O.",
"..P.A.0.A.S.] r c B E E I b.h.k.d.R a.v.p.j.y.I c.h.p.u.R i.n.h.p.r.I c.h.u.t.R N c g s A.~.A.A.L.>.",
") *.&.4.2.S e x R e.t.W I b.h.h.u.R f.v.t.d.d.I z.h.u.h.E i.n.h.h.r.I c.h.h.d.E Q @.c 5 S q.B.=.*.} ",
"*.Y.F.=...= 4 i.k.u.t.W I b.h.u.u.R f.v.u.p.d.I z.h.t.k.! i.v.h.k.r.I b.h.j.h.E @.v.W j % } =.B.I.>.",
"=.K.A.Y.K.0 4 g.v.t.u.y.I b.h.u.u.R f.v.u.p.d.I z.h.u.k.! i.v.h.k.r.I c.d.p.d.E @.n.r.h 1 D.K.A.F.>.",
"} 8.F.B.G.0 4 g.x.t.h.p.I b.h.j.p.R a.v.u.p.d.I z.h.u.h.! i.v.h.k.R V c.T J U m Q $.J : - D.G.F.A.o.",
"D | O.} X.- 4 g.x.t.u.t.I b.h.k.p.R f.v.p.h.p.I z.h.u.u.R i.v./ n 2 r H n q l z 3 , > % $  .>.>...D ",
"o.G.Z.B.Z.9 4 g.x.u.u.W I b.h.k.p.R f.v.h.k.r.I z.h.h.d.R i.v.E r > , , , > , 2 , ; > % - q.S.Z.G.=.",
"..F.F.A.J.0 4 g.x.u.h.t.I b.h.k.p.R f.v.h.k.r.I z.h.j.h.R i.v.u.i.U B ^ v z k h x g w % - S.H.F.A.X.",
"{ 0.q.,.S.0 4 g.x.u.h.p.I b.h.k.p.R f.v.h.k.r.I z.h.h.u.R i.v.u.u.j.E b./ i.y.K ! d.E d 1 Z.F.q.,.) ",
"Z | ;.*.-.< 4 g.x.t.u.t.I b.h.k.p.R f.v.h.k.r.I z.h.p.u.R i.v.u.u.j.R c.j.u.k./ @.b.r.j % ' =.o.| D ",
"o.Z.A.S.8.7 4 g.x.u.u.W I b.h.k.p.R f.v.h.k.r.I z.h.p.j.E i.v.u.u.h.R c.h.h.h.E @.b.r.j > ,.A.A.A.o.",
"*.A.F.q.G.0 4 g.x.u.d.W I b.h.k.p.R a.v.p.h.r.I c.h.p.k.! i.v.u.u.p.I c.h.u.u.E @.b.r.j 1 A.H.F.q.} ",
"| 4.G.9.S.0 4 g.v.p.u.W I b.h.p.h.E a.v.u.u.r.I c.h.u.k.! i.v.u.p.r.I c.h.h.p.E @.b.r.j 1 A.0.A.q.} ",
"D -.,.&.| = 4 g.v.p.t.W I b.h.t.k.! f.v.u.u.y.I c.h.u.k.! i.v.p.p.r.I c.h.j.h.E @.b.r.j * { &.&.=.' ",
"| 9.A.q.9.7 4 g.v.h.h.~ I b.h.h.h.E f.v.u.u.y.I c.h.u.j.! i.v.p.h.t.I c.h.j.h.E @.b.r.j > 1.7.0.q...",
"=.H.E.A.J.0 4 g.b.j.u.W I b.h.k.h.R a.v.u.h.t.I c.h.t.u.R i.v.u.h.d.I c.h.j.h.E @.b.r.j 1 F.Y.E.D.o.",
"o.q.A.H.Y.0 4 g.m.h.r.w.I b.h.d.d.E a.v.h.k.r.I z.h.t.t.R i.v.u.u.j.R c.h.j.h.E @.b.r.j 8 G.A.A.D.>.",
"' ;.-.1.=.- 4 g.z.H g B v #.Y g F B a.v.h.k.r.I z.h.u.u.R i.v.u.u.j.R c.h.h.h.E @.b.r.j * ..-.>.>.[ ",
"| 6.4.8.<.< 4 g.+., > , , , , ; , h g.v.h.k.r.I z.h.h.h.E i.v.u.u.j.R c.h.u.k./ @.b.r.j - ;.0.4.4.o.",
"-.F.K.G.G.0 4 g.k.J k b b P B k J K a.v.u.u.r.I z.h.u.j.E i.v.u.h.p.I c.h.t.k./ @.b.r.j 1 B.I.K.H.=.",
"=.A.K.7.S.0 4 g.v.t.t.W I b.h.u.u.R a.v.u.u.r.I c.h.u.u.R i.v.h.k.r.I c.h.h.j.! @.b.r.j 1 S.G.H.0.{ ",
"[ ,.q.4.4.7 4 g.x.t.t.W I b.h.u.u.R f.v.u.u.t.I c.h.t.p.E i.v.u.h.d.I c.h.j.h.E @.b.r.j * *.,.4.2.[ ",
"{ 4.B.A.1.- 4 g.x.u.u.W I b.h.h.u.R f.v.u.u.r.I c.h.u.p.E i.v.p.h.p.I b.h.h.p.E @.b.r.j > ;.4.0.A.O.",
"=.G.A.H.W.0 4 g.v.p.j.~ I b.h.k.d.R f.v.s.j.r.I c.h.h.h.R i.v.p.d.r.I c.h.u.u.E @.b.r.j 1 A.Y.A.D.O.",
"o.A.A.C.G.0 4 g.x.h.k.e.I b.h.k.p.R f.v.h.k.r.I z.h.k.h.R i.v.u.p.r.I c.h.u.u.E @.b.r.j > >.A.A.q.o.",
"{ q.q.,.A.0 4 g.x.u.u.W I b.h.k.p.R f.v.h.k.r.I z.h.k.h.R i.v.u.p.r.I b.h.u.u.! @.b.r.j 1 A.S.Z.1.[ ",
"Z | =.| { $ 4 g.x.u.t.W I b.h.j.p.R f.v.h.k.r.I z.h.k.h.R i.v.u.u.r.I c.h.u.u.E @.b.r.j % ' o.=.o.D ",
"{ 6.4.B.q.7 4 g.x.u.u.W I b.h.p.u.R f.m.j.p.r.I z.h.k.h.R i.v.u.u.r.I c.h.h.h.E @.b.r.j > 6.B.4.q.;.",
"} 8.8.F.Y.0 4 g.v.h.h.e.I b.h.u.u.R a.M.k.u.e.I z.h.h.j.E i.v.h.k.r.I b.^ ~ ^ P @.v.W 4 8 H.S.7.B.;.",
"} 8.S.A.F.0 4 g.m.j.t.W I b.h.u.u.R a.m.j.u.r.I c.h.u.k./ i.v.p.#.k b l.Y z H m v z r % - V.B.A.A.=.",
"D ..=.<.=.- 4 g.m.j.t.W I b.h.k.p.R f.v.h.k.r.I z.h.u.j.! i.b.E 3 > , 2 3 > 2 2 > * ; % $ } %.=.,.o.",
"{ :.4.B.3.- 4 g.m.j.t.W I b.h.k.p.R f.v.h.k.r.I z.h.u.j.! i.v.y.U 5 g k g 3 5 g 5 , > % $ =.,.2.0.o.",
"o.q.H.N.S.0 4 g.m.j.t.W I b.h.j.h.E a.v.h.k.r.I z.h.u.j.! i.v.h.k.! I z.P I B x C I b : - 8.B.F.B.} ",
"o.8.B.B.F.0 4 g.m.j.u.W I b.h.u.k.! a.v.h.k.r.I z.h.u.j.! i.v.p.h.p.R b.h.u.t.E @.v.r.j > 1.0.B.q...",
"D *.<.,.<.7 4 g.c.h.j.e.I b.h.p.k.! a.v.h.k.r.I z.h.u.j.! i.v.u.u.h.R b.v.s.t.E @.b.r.j * ..-.<.<.| ",
"[ 8.B.4.,.< 4 g.x.h.k.e.I b.h.p.k.! a.v.u.h.r.I z.h.t.d.E i.v.u.u.u.I b.v.h.t.E @.b.r.j * X.0.A.8.| ",
"} D.W.B.I.0 4 g.x.h.k.e.I b.h.p.p.R g.v.t.u.t.I c.h.t.t.R i.v.u.t.r.I b.j.j.h.E @.b.r.j > ,.A.E.A...",
"o.D.q.S.W.0 4 a.x.u.h.W C c.p.p.u.K i.x.t.p.p.P z.k.h.u.K @.c.u.t.e.V z.h.j.d.R @.v.r.h 1 S.I.B.B.=.",
"' >.4.0.4.< O g P B B k : m B B B 4 g P B B n : n P P B 4 5 P B B x : n B J B d r U x + $ =.,.=.4. ."
};
