/* XPM */
static char *result[] = {
/* columns rows colors chars-per-pixel */
"50 50 164 2 ",
"   c #3C342E",
".  c #3E362F",
"X  c #423932",
"o  c #483E36",
"O  c #4D433A",
"+  c #51463C",
"@  c #53483E",
"#  c #54493F",
"$  c #554A3F",
"%  c #53493E",
"&  c #52483D",
"*  c #54483E",
"=  c #52483E",
"-  c #4C4239",
";  c #453C33",
":  c #413931",
">  c #433B32",
",  c #483F36",
"<  c #4D4339",
"1  c #50463C",
"2  c #53483D",
"3  c #544A3F",
"4  c #54493E",
"5  c #52473D",
"6  c #50453B",
"7  c #4F443B",
"8  c #50453C",
"9  c #403730",
"0  c #433A32",
"q  c #473E35",
"w  c #51473D",
"e  c #51463D",
"r  c #52473E",
"t  c #4A4137",
"y  c #443B33",
"u  c #413830",
"i  c #433B33",
"p  c #453C34",
"a  c #463D35",
"s  c #493F36",
"d  c #4F453B",
"f  c #4B4138",
"g  c #4A4037",
"h  c #413930",
"j  c #40372F",
"k  c #4E443A",
"l  c #51473C",
"z  c #55493F",
"x  c #494037",
"c  c #493F37",
"v  c #473E36",
"b  c #564B40",
"n  c #4C4238",
"m  c #423A32",
"M  c #423931",
"N  c #3F372F",
"B  c #3D352E",
"V  c #3E362E",
"C  c #4A4138",
"Z  c #4A4038",
"A  c #403830",
"S  c #3B342C",
"D  c #3A332C",
"F  c #3A322B",
"G  c #3D352D",
"H  c #443B34",
"J  c #463D34",
"K  c #423A31",
"L  c #3C342D",
"P  c #3B332C",
"I  c #473D35",
"U  c #53493F",
"Y  c #4C4139",
"T  c #50463B",
"R  c #443C33",
"E  c #494036",
"W  c #3F362F",
"Q  c #3F362E",
"!  c #53483F",
"~  c #50463D",
"^  c #4F453C",
"/  c #4E433A",
"(  c #473D34",
")  c #3A332B",
"_  c #4F453A",
"`  c #574C40",
"'  c #483E35",
"]  c #4C4138",
"[  c #4E443B",
"{  c #483F35",
"}  c #463C34",
"|  c #574B40",
" . c #584C41",
".. c #453B34",
"X. c #3C352E",
"o. c #3D362E",
"O. c #423930",
"+. c #433A31",
"@. c #4F443A",
"#. c #574C41",
"$. c #4E433B",
"%. c #443B32",
"&. c #4D443A",
"*. c #4A4036",
"=. c #53473D",
"-. c #574B41",
";. c #594D42",
":. c #4B4139",
">. c #4C4339",
",. c #52473C",
"<. c #4B4238",
"1. c #3E352D",
"2. c #564A40",
"3. c #554A40",
"4. c #4B4137",
"5. c #453B33",
"6. c #564B41",
"7. c #39322A",
"8. c #4D4239",
"9. c #584D42",
"0. c #584C42",
"q. c #594E43",
"w. c #574C42",
"e. c #554B40",
"r. c #3C332D",
"t. c #3F3730",
"y. c #564A3F",
"u. c #3E352E",
"i. c #413831",
"p. c #5A4E43",
"a. c #4F463C",
"s. c #3C332C",
"d. c #594E42",
"f. c #4E453B",
"g. c #453D34",
"h. c #463E35",
"j. c #594C42",
"k. c #3D342D",
"l. c #443A33",
"z. c #3E352F",
"x. c #443A32",
"c. c #53473E",
"v. c #4B4239",
"b. c #38302A",
"n. c #4E4339",
"m. c #52463D",
"M. c #352E28",
"N. c #39312B",
"B. c #352E27",
"V. c #373029",
"C. c #39312A",
"Z. c #383029",
"A. c #473E34",
"S. c #383129",
"D. c #362F28",
"F. c #38312A",
"G. c #39322B",
"H. c #3C342C",
"J. c #55493E",
"K. c #3B332B",
"L. c #594D43",
"P. c #4D423A",
"I. c #4B4037",
"U. c white",
/* pixels */
"  . X o O + @ # $ % & & & @ @ * # # $ $ = - ; : > , < 1 2 3 $ $ 4 4 4 @ 5 + 6 7 6 8 + + 1 1 1 1 1 1 ",
". 9 0 q - 6 5 4 3 4 2 & w + + e 5 5 r 5 8 t y u > , O + 2 # $ $ 4 4 4 @ 5 e 8 7 6 + + + 1 1 1 1 1 1 ",
"0 i p a s - 6 @ # $ 4 & d - f f - - - f g p h j 0 s k l @ # $ z 4 4 4 @ r e 8 8 8 + + + + w w w w w ",
"x c v p y q - l # b $ & n p m m 0 y 0 M u N B V 0 g d 5 4 # z # 4 * @ @ @ 5 e + + + 5 5 5 5 5 5 5 5 ",
"d k C p X y Z 8 @ $ 3 1 , A B B . . B S D F D G M s 7 l 5 5 5 5 5 5 5 @ @ 5 5 5 5 5 5 5 @ @ @ @ @ @ ",
"= w O o H a - + 5 + k f J K A A : u N B L P P G : I f - - - f f f < d e 5 5 5 5 5 5 5 @ @ @ @ @ @ @ ",
"U = 8 - Z Y 6 5 T g y 0 R q E g g E q ; K A W Q 9 0 ; ; > K M : m p C 7 5 5 5 5 5 @ @ @ # # # @ @ @ ",
"# ! r ~ ^ 8 5 2 / ; B B ; < 5 @ & l d < g ( 0 u 9 9 N V L P ) ) S N J - 8 e 5 5 5 @ @ @ # # # @ @ @ ",
"# # @ r e + 1 _ t > W A , + b ` b $ 4 5 d n ' y M N B L P ) F F P V 0 o ] 7 + 5 5 5 5 @ @ @ @ @ @ 5 ",
"# @ @ = e [ f { ( } ( s k 4 |  . .` | $ @ + < c ..A B X.o.N N N N N 9 M p f 8 & 5 + + w 5 @ @ 5 5 5 ",
"@ @ @ 5 1 - J O.+.s @.2 z $ b ` #. . . .| z 5 $., X . W : y ; ; %.M W G j a &.w + d d 1 w 5 5 5 + + ",
"@ @ @ = 1 f 0 V u *.=.| #.b b | -. . .;. .-.z e :.H A A 0 J q , q ; A G V 0 x >.k k 7 6 + 5 5 5 ,.,.",
"@ @ @ @ w <.0 1.j s 5 | #.b b b | -. . . . .2.@ / I X : > J ' x t , %.A N A K p s - d + e 5 5 5 2 2 ",
"@ @ @ @ w n %.Q u , + 3.b b b b 2.2.| | | -.-.z 8 c y 0 %.; ' 4.>.n s ; M V L V %.Z 7 + 5 5 2 @ @ 4 ",
"@ @ 5 + k g 5.h %.t 5 3.6.b b b b | | | |  . .2.e Z } y ; ( E < d d >.s y V 7.F 9 q 8.d + 5 2 2 @ @ ",
"# @ 8 - , a } J g d # #.#.#.#.#.-.-. . . .;.;.#.5 f J } q g < 1 @ = 1 n q j F 7.B 0 o Y 7 + 5 5 5 5 ",
"# 5 O a : m a n 6 # #.9.;.9.9.0.0. . . . .;.q.w.& <.( I g O 1 # b e.@ d x K L F r.N 0 o >.6 + + + + ",
"# w f 0 B t.q 7 @ b #.9.;.;.;.;.;.9.#.2.y.-.9.#.w f J q f 7 @ b 9.w.3.w - y u.P L W X a t O d 8 8 e ",
"@ + Z i.P V a 7 @ # 3.b  .;.p.p.q. .# + d w # 3 a.s R J C d @ 6.9.;. .# 7 } u.P u.0 J q v x - ^ 5 @ ",
"5 7 c A P B } k 5 5 5 @ 2.;.p.p.q.6.+ f , f ^ w O q 0 ; g d @ b 9.;.;.#.+ I u.s.i., f x J p x 7 @ # ",
"/ - I u L N I @.+ + 6 + # #.;.d.9.$ f., p q <.O C J > g.C d @ 2. .;.p.;.=.' u.L 0 - d <.J y , O e @ ",
"I } y M i.5.f 8 5 8 7 d 5 z b b 3 & [ f , q , , q h.q x &.l % $ b  .;.j.@ o . k.l.8.+ k g ' , g f - ",
"z.W i.x.q f 6 c.@ + 7 7 1 5 5 ,.T d d d / g ; 0 R , v.[ l @ 4 # z 2. . .c.o N u.y - + + d < g J y 0 ",
"b.F . ; n 1 @ z z 5 6 d d 6 6 k < n.6 =.m.n ; h > s k + @ # $ # 4 # 2.2.5 c M 9 y f 6 5 2 + 4.0 V L ",
"M.b.u.J k 2 $ b 2.# 5 + 6 7 / 8.n < 6 @ @ @., ; ; , <.f.& $ b $ # # z # + f a 5.a g < + @ 5 f M L N.",
"B.V.u.J 7 4 b #.#.| $ @ + 7 O - - < d 5 @ + / f , J a t 1 $ ` | y.z @ 5 6 k - g s , E / 5 5 f M P C.",
"B.Z.V I d # b #.0. .#.2.2 d O - - O d w @ @ 5 6 f J y q &.% b | b z 5 6 d 6 1 @.4.A.( 4.d 6 x u P C.",
"B.S.V q 6 # 3.b #.9.9.#.z 5 d k O O d + 5 @ @ + O , g.h.t k l 4 y.$ 5 d d 1 w 6 f J ; ' f f J j P C.",
"D.F.N { T % # # 3.#.;.9.-.z 2 1 d k d 1 w 5 5 + [ - x , q q t 6 4 z & T d 1 l d f J %.; J J M u.P G.",
"V.G.N , T & = r ! 3.w.9. .b z 2 1 d 6 + + + + 1 1 d O x ; K ; n l 2 ,.6 d 1 1 f.f A.%.0 m : N B H.P ",
"F.) A { d w w e r U 3.3.3.$ J.@ 5 w w 5 5 5 5 5 w + d f J > R s < k k O k d a.d - s J y K : A N W W ",
"7.S A q k + w e e 1 1 + + 5 =.@ 4 # 4 % @ * # # @ w 6 < t , q J J q s g - k d d k n g q ; > 0 0 %.y ",
"K.L u q < T l w 1 k 8.- 8./ 6 5 $ b b $ $ $ 2.2.# 5 6 d k < g J K M y I c - d 1 1 d < t q J J q o , ",
"K.G h q >.d 1 1 d O f g g f 8.1 # b b b b | #.-.2.4 5 + + d - q %.M M x.J f d w w + d - s q q s g g ",
"K.G h q < d 6 d d O n 4.s o c / 5 3.b | #. .9.9.0.| $ * 5 1 k n s J M u 0 s d @ % & 1 < x q ' s g g ",
"H.V M q >.@.d k k k < f ' } I f 1 # 2.|  .9.;.L.;.9.#.$ 2 + 6 6 7 4.x.W j q _ @ 4 & 1 < x q ' s g g ",
"N A > ' n &.k k k < n g q p J g d & # y.| -.#.#.w.0.#.$ 5 6 6 + + 8.; W W ; n 6 1 6 k - g , s t f n ",
"; p a , t n O k k - g s q I ' f k + 5 @ 4 4 4 # 3 3.$ @ 8 k k 8 + / I : 9 M } ' E g f g x x f < k k ",
"C Z x s s t >.k O C o I q o g n / d T + + + 1 1 w & = + k 8.8.k 7 P.s y : A j A M y J ' c f < d 1 l ",
"[ O - x , E <.< - c a p I s g f - < @.6 6 d @.k d 1 w 1 k 8.- 8.8.f , p M N B G V A 0 J s n k 1 w & ",
"^ d O t , , x C x q ; y } o s g t <.< d 6 6 k k d + 5 w 1 7 O ] g o } y M 9 . u.B V A y s - d 1 w & ",
"1 d k f s o , , q p y y p I o o , g - @.8 6 [ k d e r = 5 + / g I 5.0 0 M M i.A . u.N %.E < d 1 1 l ",
"1 1 k - g s o q a p 5.5.} a I I a ' t < @.k < - O 8 e 5 5 1 < , y 0 0 0 %.y y 0 u W 9 y t k 1 1 1 1 ",
"1 T d k 8.f s q a q ' ' I I J p ; p q g 4.g s , g - / k k < g J 0 0 y I o o o I y 0 0 q < 1 l l 1 1 ",
"d d 6 6 d / f , , g f f c q } y 0 0 5.J ( } 5.y } o x t g s q y m i q f - - n f s ' , f d w 5 w w w ",
"d d 1 + w 6 >.t C - / / f , J y 0 0 %.5.; %.+.+.%.J q ' q J p > 0 p x O 7 d k k < - - k + 5 5 w w w ",
"d 6 1 5 5 e d O O 7 8 d 8.g q J p ; } ( I J ; 5.} q o ' q J J J J o f / d 8 1 1 6 6 6 1 e w w + 1 1 ",
"1 1 + 5 = 5 e 1 1 w 5 + k f x , ' o s g I.g s o , c x s ' q q s g f - O [ 8 e 5 & & & 5 + 1 8 8 8 8 ",
"1 1 w 5 @ @ = = = = @ w 7 - f g g g f 8.8.8.f f f f f g , q , f 8.8.8.- O d 5 @ 4 # 4 & + d d 7 7 7 ",
"1 1 w 5 @ @ @ @ @ % @ 5 d 8.f g g f - / / / - n f f f g , ' s f / / O - O d 5 4 $ $ $ @ + d 7 7 7 7 "
};
