/* XPM */
static char *_5271f37b9bc4987ce37953a17ae1104NcZcM3BrtGm4vSP7[] = {
/* columns rows colors chars-per-pixel */
"50 50 158 2 ",
"   c #000000",
".  c #080606",
"X  c #070807",
"o  c #0B0C0B",
"O  c #120E0E",
"+  c #0E110E",
"@  c #1C130F",
"#  c #0F1411",
"$  c #121512",
"%  c #1F1716",
"&  c #151815",
"*  c #191D19",
"=  c #211712",
"-  c #231916",
";  c #2B1C15",
":  c #251B19",
">  c #2A1F1B",
",  c #361F16",
"<  c #381F17",
"1  c #1D231D",
"2  c #20241D",
"3  c #2C201C",
"4  c #372017",
"5  c #382017",
"6  c #34251F",
"7  c #3B281E",
"8  c #1F2320",
"9  c #1F2921",
"0  c #222522",
"q  c #252A25",
"w  c #2C2B27",
"e  c #2B2D2B",
"r  c #322420",
"t  c #362822",
"y  c #3D2C23",
"u  c #263027",
"i  c #2D312D",
"p  c #2F3730",
"a  c #2D3C31",
"s  c #323433",
"d  c #333C35",
"f  c #3C3E3C",
"g  c #422D23",
"h  c #4C3325",
"j  c #543528",
"k  c #573D2F",
"l  c #5C3D2B",
"z  c #4F3C31",
"x  c #443E3B",
"c  c #523C31",
"v  c #5F3F30",
"b  c #613D2F",
"n  c #2E4034",
"m  c #324237",
"M  c #354439",
"N  c #39453C",
"B  c #3B4A3E",
"V  c #574134",
"C  c #5F4231",
"Z  c #68412F",
"A  c #614332",
"S  c #6E4A37",
"D  c #634A3B",
"F  c #684F3E",
"G  c #744B35",
"H  c #7B4C35",
"J  c #7B4E38",
"K  c #74523C",
"L  c #7E523A",
"P  c #3D4C41",
"I  c #4D4542",
"U  c #424D44",
"Y  c #474D49",
"T  c #494B4A",
"R  c #544B44",
"E  c #554C49",
"W  c #445247",
"Q  c #465349",
"!  c #4B554D",
"~  c #4C594E",
"^  c #4E5750",
"/  c #4E5A51",
"(  c #535754",
")  c #5D5752",
"_  c #535D55",
"`  c #575D5A",
"'  c #654F43",
"]  c #735644",
"[  c #7C5640",
"{  c #7B5944",
"}  c #556157",
"|  c #576359",
" . c #5A645C",
".. c #5C685E",
"X. c #7F604C",
"o. c #606D5F",
"O. c #5E6661",
"+. c #5E6A61",
"@. c #616563",
"#. c #636C65",
"$. c #666B69",
"%. c #696F6B",
"&. c #657266",
"*. c #677169",
"=. c #6B726D",
"-. c #6D786D",
";. c #716D70",
":. c #6E7570",
">. c #6F7971",
",. c #727674",
"<. c #737A75",
"1. c #777C79",
"2. c #7A7D7B",
"3. c #81553D",
"4. c #87593D",
"5. c #8E5D3F",
"6. c #835740",
"7. c #845A42",
"8. c #8E5F41",
"9. c #865F49",
"0. c #8E6043",
"q. c #86614A",
"w. c #8E644A",
"e. c #936446",
"r. c #946649",
"t. c #966A4C",
"y. c #986B4E",
"u. c #8E6B53",
"i. c #956C51",
"p. c #9A6E52",
"a. c #9C7255",
"s. c #9E7459",
"d. c #A0765B",
"f. c #A2795D",
"g. c #A47C61",
"h. c #7C827D",
"j. c #80877F",
"k. c #A78064",
"l. c #7E7F80",
"z. c #7F8281",
"x. c #828584",
"c. c #858B86",
"v. c #868788",
"b. c #888789",
"n. c #878A88",
"m. c #8A8C8C",
"M. c #8D918E",
"N. c #8E8F91",
"B. c #919492",
"V. c #939194",
"C. c #949396",
"Z. c #959696",
"A. c #969598",
"S. c #99979B",
"D. c #9A999C",
"F. c #9D9A9F",
"G. c #9F9CA1",
"H. c #A1A0A3",
/* pixels */
"                          . # $ + i Y Y $.:.^ N.N.m.<.P ,.@.Y Y e + $ + .                           ",
"                    . + q i  .Q | x.F.F.H.h.^ B.Z.c.n.Q x.G.F.D.l._ Q _ q 0 o .                     ",
"                o 1 d  .c.m.B.c...#.v.N.Z.<.B -.x.c.x.P 1.Z.V.v.#.#.M.B.m.z._ a 1 o                 ",
"            X q N M Q m.m.1.1.v.2.^ _ #.~ q & q q e q $ w _ =._ ^ 2.;.x x I I w q s 0 X             ",
"        X 1 ( v.m.<.#.~  .1.1.( T 0 X o X                 X o X 0 E D q.q.q.L q.D R @.! * .         ",
"    X # q #.C.m.1.m.V.` 9 1 * .                                 ; { g.f.r.d.e.d.s.q.' ) ! 9 + .     ",
". $ u P U Q #.<.1.<.! o                                       > ] f.g.s.e.d.y.f.r.a.i.l 2 a N q $ . ",
"$ N #.A.S.<./ Q ~ s X                                       = ] g.k.g.r.r.f.r.d.p.s.y.4.h s x.+.M + ",
"U m.V.l.m.G.x.d .                                           h s.s.y.f.e.8.d.r.f.p.s.s.0.h e m.F.v.M ",
"P 1.<.1.h.<.s                                           . 7 { g.p.r.g.r.8.d.t.f.y.s.d.3.5 e 1.,.,.B ",
"U =.*. .~ q .                                           . A s.g.y.r.g.t.e.d.r.d.p.s.p.H < 9 O.=.*.B ",
"_ F.V.z.1.w                                             . C s.f.r.r.g.p.r.d.e.d.y.s.s.3.5 q 1.N.v.W ",
"Q 1.v.m.V.s                                             . C s.f.t.p.g.t.e.d.y.f.K { p.3.5 e x.b.1.U ",
"B _ #._ O.0                                             . C s.f.p.s.g.t.8.d.r.s.z 3 c v ; 0 =.%.^ M ",
"Q x.h.<.2.e                                             . C s.f.r.t.g.t.8.d.r.d.c % - : @ q 1.x.1.m ",
"Q v.m.x.M.s                                             . C s.f.r.r.f.e.0.f.a.f.c % g l , e v.m.,.a ",
"B :.1.#.x.s                                             . C s.f.y.s.d.e.a.g.p.f.c y K L 5 e 2.=._ a ",
"M _ #.+. .8                                             . A s.f.y.s.d.e.a.g.t.f.q.u.s.L 5 0  .| _ a ",
"_ N.m.m.c.e                                             . C s.f.r.r.f.e.e.d.t.f.d.f.d.3.< s V.m.h.m ",
"~ ,.v.,.c.s                                             . C s.f.r.t.f.e.8.d.t.f.s.s.f.6.5 q <.m.#.m ",
"P #.<.#.#.0                                             . C s.f.r.t.g.t.8.d.r.f.r.a.s.J 5 1 ..*.#.a ",
"P *.<.=.#.0                                             . C s.f.r.r.g.t.8.d.e.s.r.a.i.G 5 0 ..=.#.d ",
"_ m.S.v.V.s                                             . C s.f.r.r.g.t.8.s.e.s.r.a.p.J < i N.S.1.B ",
"^ 1.x.m.V.s                                             . C s.f.r.r.g.r.8.d.e.d.p.s.f.6.5 w 1.v.2.Q ",
"B  . .$.| 1                                             . A s.f.r.r.f.r.r.d.e.d.s.f.s.L 5 1 | @.} M ",
"^ h.h.x.2.w                                             . C s.f.r.e.d.i.q.s.r.d.s.f.d.3.4 e x.h.1.P ",
"} v.m.h.c.i                                             . C s.s.K l 9.X.t V 7.f.s.f.s.L 5 e m.m.,.m ",
"~ <.m.-.x.s                                             . C s.] 3 : 6 r > c 6.f.a.s.a.J 5 q <.j.o.a ",
"B  .,.<.O.8                                             . C s.] 6 : 7 j b a.r.d.y.s.p.J 5 1  .-.#.n ",
"^ c.m.V.Z.s                                             . A s.d.[ A 9.r.8.s.e.d.s.d.i.G , i v.m.x.M ",
"~ x.z.l.M.s                                             . C s.f.r.r.g.t.0.d.r.f.r.a.p.J < i v.2.,.M ",
"P <.2.#.x.s                                             . C s.f.r.r.g.t.8.f.s.g.r.a.s.L 5 e 2.2. .M ",
"m ~ ` ~ ! *                                             . C s.f.r.r.g.t.8.f.s.g.r.a.s.L 5 1 _ | ! a ",
"W >.-.z.v.e                                             . C s.f.r.r.g.y.r.f.s.g.r.a.s.3.5 w <.>.1.Q ",
"Q ,.1.c.B.s                                             . C s.f.r.r.f.e.r.f.s.g.0.i.f.6.5 q <.1.1.B ",
"P &.h.2.1.e                                             . C s.f.r.r.d.0.p.g.s.f.V z 7.J , 0 &.h.,.U ",
"B ~ _ #.} *                                             . C s.f.r.r.d.e.p.f.r.s.c % 3 6 @ * Q | ..P ",
"Q <.v.x.c.i                                             . C s.f.r.r.f.r.r.d.e.s.c % > 7 ; q <.m.<.m ",
"^ <.x.1.c.s                                             . C s.f.r.r.f.8.5.d.e.s.c - C H 5 q <.x.=.d ",
"M  .%.*.=.q                                             . C s.f.t.p.d.5.5.d.e.s.D F w.J 5 1 +.=.#.P ",
"P =.h.=.#.0                                             . C s.f.r.r.f.e.8.s.e.d.a.s.f.6.5 w 1.z.#.B ",
"W v.C.h.B.s                                             . C s.f.r.r.f.e.8.s.e.s.t.s.f.6.< e m.C.:.B ",
"! z.2.v.B.s                                             . C s.f.r.r.g.t.8.s.e.s.r.a.i.Z ; f x.<.1.P ",
"9 s f f d $                                             . C s.f.r.r.g.t.8.d.e.d.r.7.k @ $ i p s d 1 ",
"                                                      . o C s.f.r.r.g.y.8.d.e.t.A ; o               ",
"                                                      . o C s.f.r.r.g.y.5.i.S y O                   ",
"                                                      . O C s.f.r.r.g.r.G 7 O .                     ",
"                                                      . O C s.f.r.0.q.h @ .                         ",
"                                                        o C i.i.J h - .                             ",
"                                                        X y h h 7 O                                 "
};
