/* XPM */
static char *f18ef8c0eb7c4f92fa40b74d8146ebd3noodbbmlW9Qv7ONE[] = {
/* columns rows colors chars-per-pixel */
"50 50 126 2 ",
"   c #010000",
".  c #0B0505",
"X  c #0D0807",
"o  c #242134",
"O  c #653932",
"+  c #1F1D31",
"@  c #44273B",
"#  c #8B7030",
"$  c #6A3B32",
"%  c #281613",
"&  c #40241D",
"*  c #362636",
"=  c #633630",
"-  c #1C110C",
";  c #130F14",
":  c #5C332E",
">  c #4B2B38",
",  c #503233",
"<  c #4B2B25",
"1  c #1B160A",
"2  c #92563B",
"3  c #8F974A",
"4  c #271926",
"5  c #8C5338",
"6  c #331C16",
"7  c #787742",
"8  c #2B2335",
"9  c #7B642F",
"0  c #422434",
"q  c #403935",
"w  c #171623",
"e  c #542C29",
"r  c #04050A",
"t  c #7B4836",
"y  c #744332",
"u  c #6C4330",
"i  c #1E1418",
"p  c #817441",
"a  c #3B2933",
"s  c #2E2711",
"d  c #2F1C26",
"f  c #767D98",
"g  c #755A30",
"h  c #844A39",
"j  c #B03333",
"k  c #643B32",
"l  c #503F1C",
"z  c #898746",
"x  c #0B0B12",
"c  c #939C56",
"v  c #909446",
"b  c #8D823C",
"n  c #583938",
"m  c #6F3D2F",
"M  c #140B0A",
"N  c #37181B",
"B  c #542B39",
"V  c #522F37",
"C  c #190F15",
"Z  c #CADAF2",
"A  c #DC5865",
"S  c #82343B",
"D  c #5F1B1B",
"F  c #230A0A",
"G  c #56312A",
"H  c #6B343A",
"J  c #893337",
"K  c #96583C",
"L  c #5F3142",
"P  c #432D34",
"I  c #856A2F",
"U  c #514835",
"Y  c #3D3E1F",
"T  c #502025",
"R  c #852626",
"E  c #919A4A",
"W  c #783644",
"Q  c #6E2A34",
"!  c #382C18",
"~  c #322127",
"^  c #170C09",
"/  c #37354A",
"(  c #8C5844",
")  c #CA525D",
"_  c #7B8346",
"`  c #68693A",
"'  c #645636",
"]  c #873C4B",
"[  c #C0CBD1",
"{  c #AEBBDB",
"}  c #5C4B35",
"|  c #686D43",
" . c #3C4042",
".. c #5A4625",
"X. c #585D4C",
"o. c #9A5A3D",
"O. c #826632",
"+. c #644934",
"@. c #493448",
"#. c #55562A",
"$. c #963D49",
"%. c #BBB3B5",
"&. c #70768E",
"*. c #9EA878",
"=. c #D2E3FF",
"-. c #CE9160",
";. c #CA9FA8",
":. c #B54D54",
">. c #A09570",
",. c #A9AC91",
"<. c #7A819B",
"1. c #939FB7",
"2. c #856B65",
"3. c #93918E",
"4. c #47191A",
"5. c #E0A968",
"6. c #D76F63",
"7. c #A4494B",
"8. c #912D30",
"9. c #370F0F",
"0. c #7D6271",
"q. c #C5474E",
"w. c #A3AE7C",
"e. c #A47A4B",
"r. c None",
"t. c None",
/* pixels */
"t.t.t.t.t.t.t.t.t.t.t.t.t.t.t.t.t.t.t.t.t.t.t.t.t.t.t.t.t.t.t.t.t.t.t.t.t.t.t.t.t.t.t.t.t.t.t.t.t.t.",
"t.t.t.t.t.t.t.t.t.t.t.t.t.t.                                      t.t.t.t.t.t.t.t.t.t.t.t.t.t.t.t.t.",
"t.t.t.t.t.t.t.t.t.t.t.t.                                              t.t.t.t.t.t.t.t.t.t.t.t.t.t.t.",
"t.t.t.t.t.t.t.t.t.t.                                                  t.t.t.t.t.t.t.t.t.t.t.t.t.t.t.",
"t.t.t.t.t.t.t.t.t.                                                      t.t.t.t.t.t.t.t.t.t.t.t.t.t.",
"t.t.t.t.t.t.t.t.t.                                                      t.t.t.t.t.t.t.t.t.t.t.t.t.t.",
"t.t.t.t.t.t.t.t.t.                                . % % % % % % % X     t.t.t.t.t.t.t.t.t.t.t.t.t.t.",
"t.t.t.t.t.t.t.t.t.t.                          . & u t y O O O e % X       t.t.t.t.t.t.t.t.t.t.t.t.t.",
"t.t.t.t.t.t.t.t.t.        X - - F 1 F - - - & t 2 o.2 k 0 0 i .               t.t.t.t.t.t.t.t.t.t.t.",
"t.t.t.t.t.t.t.t.t.        & 5 K 2 2 2 2 2 2 2 K 2 o.2 n @.@ C                 t.t.t.t.t.t.t.t.t.t.t.",
"t.t.t.t.t.t.t.t.t..       X s y 2 2 K 2 2 5 h m & % 6 - i 0 C       X X       t.t.t.t.t.t.t.t.t.t.t.",
"t.t.t.t.t.t.t.t.t.8.D           6 m 5 5 t 6   .         ; 0 C X N Q R R T F       t.t.t.t.t.t.t.t.t.",
"t.t.t.t.t.t.t.t.j j D . C ; . Y Y 6 : $ = & ! Y 1     ; d 0 ; N ) W @ @ J R X       t.t.t.t.t.t.t.t.",
"t.t.t.t.t.t.t.t.j j D . d 4 ; 3.3.t 7.) :.m 2.%. .    d @.0 0 0 L L @ L J R X       t.t.t.t.t.t.t.t.",
"t.t.t.t.t.t.t.t.j j D X < & X ~ n $ :.A 6.h : , i     & O = e & @ L ] ) q.R X       t.t.t.t.t.t.t.t.",
"t.t.t.t.t.t.t.t.t.j D . % -     4.7.) 6.-.( & .     . & u = % r C $.A A J 9.      t.t.t.t.t.t.t.t.t.",
"t.t.t.t.t.t.t.t.t.F X       X g -.-.%.;.( h = e m y y h h = %   X ] A ) D           t.t.t.t.t.t.t.t.",
"t.t.t.t.t.t.t.t.t.          M e.5.5.;.;.A A :.$ 5 5 t H : V F x 0 $.A j 4.          t.t.t.t.t.t.t.t.",
"t.t.t.t.t.t.t.t.t.          . & ..U U ..T T : = k n @.@ @ @ d i i 0.2.& X           t.t.t.t.t.t.t.t.",
"t.t.t.t.t.t.t.t.t.    . 4 i             M & : H B * * @ @ d C M 1 /  .i .           t.t.t.t.t.t.t.t.",
"t.t.t.t.t.t.t.t.t.t.t.X 0 B e ^       M N & 6 & H ] ] W T .   1 I %.[ p s       t.t.t.t.t.t.t.t.t.t.",
"t.t.t.t.t.t.t.t.t.t.t.t.@ 0 T Q S S S S m S S S W W W Q T     X s q / s 1 t.t.t.t.t.t.t.t.t.t.t.t.t.",
"t.t.t.t.t.t.t.t.t.t.    .     % 6 N N N 6 N N ^ X r . r .     . - 1 - - X   t.t.t.t.t.t.t.t.t.t.t.t.",
"t.t.t.t.t.t.t.t.t.          . < = = @ > = $ e 6 X           % l 5 2 5 t < 6 6 - t.t.t.t.t.t.t.t.t.t.",
"t.t.t.t.t.t.t.t.t.    .       M - - ; ; - - - - .     . 1 k 5 K ( h $ = O O $ e & X t.t.t.t.t.t.t.t.",
"t.t.t.t.t.t.t.t.t.r d G 6 X                       . % k 5 o.5 h t k @ > > , O $ < X t.t.t.t.t.t.t.t.",
"t.t.t.t.t.t.t.t.t.o 8 > = G % X               . 6 k 5 K 5 t u G 4 i 4 * , $ = $ : 4 ; t.t.t.t.t.t.t.",
"t.t.t.t.t.t.t.t.t.o + o , $ k G < < e < e < < < $ y y y m = = & .   x + 8 a : V > @ C   t.t.t.t.t.t.",
"t.t.t.t.t.t.t.t.o o + 8 P H J J m O O O = O $ $ O O $ J $.h > w   x w w + o o o o o w x t.t.t.t.t.t.",
"t.t.t.t.t.t.t.t.o o o o + * e Q Q > V > @ > , B V > P L L B 4 X     t.t.X w + 8 * * 8 8 8 t.t.t.t.t.",
"t.t.t.t.t.t.t.g 9 9 9 g ! X r r M i 0 > > > > @ d ; ; ; X         t.t.t.t.t.o * } 7 _ _ 7 7 t.t.t.t.",
"t.t.t.t.t.t.O y g g O.# # l   r d : $ O O O O = = = = : ~ .       t.t.t.t.t.o X.v 7 7 p p g H t.t.t.",
"t.t.t.t.t.t.$ u g 9 u ! s % w + a O $ < % e $ O $ = B @ d .     t.t.t.t.t.t.> +.9 p p p p p 7 u t.t.",
"t.t.t.t.t.t.V u 9 g 9 ..1 x o + a O $ & M < $ O V @ @ > * + x r t.t.t.t.t.t.t.` 7 7 _ _ v b O.u t.t.",
"t.t.: P , n n a o o P : ^ x + o * V , B @ : $ = B @ @ : , o + w t.t.> 8 P n n , a 8 o * U 9 I y t.t.",
"t.t.O O t K ( +.o + 8 * X ; / + + 8 * @ @ * * a * @ @ , e / f &.; & < ; G ( 5 t , 8 + + o U # t.t.t.",
"t.t.O O : & ~ + w + + w r X.{ &./ + 4 + + + + + + + 4  .&.{ =.1.i 6 < X s n , P * o + o o * t.t.t.t.",
"t.t.$ O e % .   . ~ 4 . s | ,.[ { f f f f f <.f f f <.{ =.Z =.1.; 1 % . ~ k t y : 8 w ; ; t.t.t.t.t.",
"t.t.t.: : : & - X < & F g # # z >.>.[ Z Z Z Z Z Z [ ,.*.*.*.w.7 i       r % u h m ;       t.t.t.t.t.",
"t.t.t.. .   . .     l O.# # # b z v c c c c c c c c 3 3 3 3 3 E v #.s t.t.t.. 6 & .     t.t.t.t.t.t.",
"t.t.t.t.t.t.t.t.t.t.t.# # # # I # b v v 3 3 3 3 z b b b b b #.Y Y 7 ` X t.t.t.t.t.t.t.t.t.t.t.t.t.t.",
"t.t.t.t.t.t.t.t.t.t.t.# 9 l - 1 ! y z E 3 3 3 z Y ^ 1 l l s r r   1 1 X t.t.t.t.t.t.t.t.t.t.t.t.t.t.",
"t.t.t.t.t.t.t.t.t.t.t.l 1       M < 7 E 3 E p u %       ; + + o + x   t.t.t.t.t.t.t.t.t.t.t.t.t.t.t.",
"t.t.t.t.t.t.t.t.t.t.              t.' 7 3 E p $ t.t.t.t.t.t.o o + w w o t.t.t.t.t.t.t.t.t.t.t.t.t.t.",
"t.t.t.t.t.t.t.t.t.      ^ 1 - t.t.t.H t z 3 7 G t.t.t.t.t.t.I '  .q U 9 t.t.t.t.t.t.t.t.t.t.t.t.t.t.",
"t.t.t.t.t.t.t.t.t.t.t.X l ..} t.t.t.t.t.+.z ` . t.t.t.t.t.t.} ' ' X.` I t.t.t.t.t.t.t.t.t.t.t.t.t.t.",
"t.t.t.t.t.t.t.t.t.t.t.t.  % ' 9 t.t.t.t.1 ! s t.t.t.t.t.t.t.| | | U t.t.t.t.t.t.t.t.t.t.t.t.t.t.t.t.",
"t.t.t.t.t.t.t.t.t.t.t.t.t.9 # # # t.t.t.t.t.t.t.t.t.t.t.t.# z v v t.t.t.t.t.t.t.t.t.t.t.t.t.t.t.t.t.",
"t.t.t.t.t.t.t.t.t.t.t.u I # # # # t.t.t.t.t.t.t.t.t.t.t.# # # 9 } q t.t.t.t.t.t.t.t.t.t.t.t.t.t.t.t.",
"t.t.t.t.t.a * * o * a a q q q q q q t.t.t.t.t.t.t.t.t.q q q q a o 0 , , , , , * o t.t.t.t.t.t.t.t.t."
};
