/* XPM */
static char *result[] = {
/* columns rows colors chars-per-pixel */
"50 50 216 2 ",
"   c #010000",
".  c #0B0505",
"X  c #0C0A06",
"o  c #04050A",
"O  c #0C0709",
"+  c #0C090C",
"@  c #07080E",
"#  c #140505",
"$  c #140B0A",
"%  c #170C09",
"&  c #1D120C",
"*  c #18150A",
"=  c #0B0B12",
"-  c #140D12",
";  c #190F15",
":  c #141215",
">  c #1B1111",
",  c #12111B",
"<  c #1B1416",
"1  c #230A0A",
"2  c #21180C",
"3  c #241412",
"4  c #291614",
"5  c #2C1914",
"6  c #22141C",
"7  c #2C1C1E",
"8  c #271B17",
"9  c #321D15",
"0  c #351C19",
"q  c #37181B",
"w  c #370F0F",
"e  c #33280E",
"r  c #2A2715",
"t  c #3C221B",
"y  c #382C18",
"u  c #3A3A1C",
"i  c #161522",
"p  c #1D1B2D",
"a  c #1A1826",
"s  c #1F1E31",
"d  c #271926",
"f  c #311D2A",
"g  c #211E33",
"h  c #362328",
"j  c #242134",
"k  c #2B2335",
"l  c #2D2A38",
"z  c #352533",
"x  c #3D2434",
"c  c #3B2933",
"v  c #3A2739",
"b  c #3A3939",
"n  c #2D2027",
"m  c #47191A",
"M  c #5A1A1A",
"N  c #621C1C",
"B  c #41251C",
"V  c #483919",
"C  c #4B1E24",
"Z  c #442622",
"A  c #4C2B25",
"S  c #472A27",
"D  c #532226",
"F  c #532E29",
"G  c #562A29",
"H  c #56312A",
"J  c #5C332C",
"K  c #563A25",
"L  c #442534",
"P  c #432D34",
"I  c #42273B",
"U  c #45283B",
"Y  c #4B2B3A",
"T  c #4B2D34",
"R  c #522F37",
"E  c #532C3A",
"W  c #5C2732",
"Q  c #4D3233",
"!  c #433933",
"~  c #473238",
"^  c #533233",
"/  c #5C3533",
"(  c #573A37",
")  c #5A383B",
"_  c #413C22",
"`  c #62372F",
"'  c #6A3E2C",
"]  c #653B2B",
"[  c #6A2C38",
"{  c #633631",
"}  c #653932",
"|  c #6A3B32",
" . c #643B39",
".. c #6B343A",
"X. c #783B34",
"o. c #73292F",
"O. c #3C401F",
"+. c #3C403F",
"@. c #53431C",
"#. c #424623",
"$. c #5A4625",
"%. c #4C4A3A",
"&. c #5B4B31",
"*. c #544733",
"=. c #5E593A",
"-. c #55562A",
";. c #69432B",
":. c #76452E",
">. c #6E592A",
",. c #6D4432",
"<. c #644934",
"1. c #734234",
"2. c #7E4935",
"3. c #764637",
"4. c #665635",
"5. c #785A34",
"6. c #755C2E",
"7. c #5F6531",
"8. c #7D652B",
"9. c #68693A",
"0. c #7A6331",
"q. c #796535",
"w. c #78773E",
"e. c #37354A",
"r. c #5E3142",
"t. c #493448",
"y. c #783644",
"u. c #663244",
"i. c #3D4146",
"p. c #5E4B41",
"a. c #5E6241",
"s. c #686D43",
"d. c #797743",
"f. c #747251",
"g. c #4C5361",
"h. c #7D6271",
"j. c #852626",
"k. c #82343B",
"l. c #893337",
"z. c #912D30",
"x. c #AE3333",
"c. c #B03333",
"v. c #834B38",
"b. c #8D5339",
"n. c #855734",
"m. c #92563B",
"M. c #96583C",
"N. c #9A5A3D",
"B. c #856B2E",
"V. c #846A31",
"C. c #8A6F30",
"Z. c #826632",
"A. c #8B7131",
"S. c #8A7E3A",
"D. c #8F722E",
"F. c #873C4B",
"G. c #963D49",
"H. c #8C4742",
"J. c #8C5844",
"K. c #944544",
"L. c #B54D54",
"P. c #A4494B",
"I. c #807441",
"U. c #877742",
"Y. c #A47A4B",
"T. c #856B65",
"R. c #C7505B",
"E. c #C5474E",
"W. c #D85763",
"Q. c #CE5560",
"!. c #E15A67",
"~. c #D76F63",
"^. c #E26267",
"/. c #7B8346",
"(. c #8D833D",
"). c #8C8B3F",
"_. c #91873C",
"`. c #868645",
"'. c #8E9446",
"]. c #8F974A",
"[. c #8F984A",
"{. c #919A4A",
"}. c #919346",
"|. c #939C56",
" X c #968658",
".X c #9C9168",
"XX c #A39977",
"oX c #9EA878",
"OX c #A3AE7C",
"+X c #C88F59",
"@X c #DAA76C",
"#X c #E5AA65",
"$X c #D8956D",
"%X c #777E99",
"&X c #757C97",
"*X c #70768E",
"=X c #9C7280",
"-X c #7A819B",
";X c #93918E",
":X c #A9AC91",
">X c #919DB4",
",X c #B69BAB",
"<X c #94A0B9",
"1X c #AEB0AE",
"2X c #D3A1A6",
"3X c #D4C2AE",
"4X c #ACB9D9",
"5X c #BABFC8",
"6X c #D3B7C2",
"7X c #BEC9CA",
"8X c #B3C0DF",
"9X c #C9D9EF",
"0X c #C6D0E5",
"qX c #CBDCF8",
"wX c #D2E3FF",
"eX c None",
/* pixels */
"eXeXeXeXeXeXeXeXeXeXeXeXeXeXeXeXeXeXeXeXeXeXeXeXeXeXeXeXeXeXeXeXeXeXeXeXeXeXeXeXeXeXeXeXeXeXeXeXeXeX",
"eXeXeXeXeXeXeXeXeXeXeXeXeXeXeXeXeX                                      eXeXeXeXeXeXeXeXeXeXeXeXeXeX",
"eXeXeXeXeXeXeXeXeXeXeXeXeXeXeX                                              eXeXeXeXeXeXeXeXeXeXeXeX",
"eXeXeXeXeXeXeXeXeXeXeXeXeXeXeX                                                  eXeXeXeXeXeXeXeXeXeX",
"eXeXeXeXeXeXeXeXeXeXeXeXeXeX                                                      eXeXeXeXeXeXeXeXeX",
"eXeXeXeXeXeXeXeXeXeXeXeXeXeX                                                      eXeXeXeXeXeXeXeXeX",
"eXeXeXeXeXeXeXeXeXeXeXeXeXeX    X 4 4 4 4 4 4 4 .                                 eXeXeXeXeXeXeXeXeX",
"eXeXeXeXeXeXeXeXeXeXeXeXeX      O 5 F } } } 1.2.;.B .                           eXeXeXeXeXeXeXeXeXeX",
"eXeXeXeXeXeXeXeXeXeXeX              . 6 L L  .m.N.m.2.B & & & 1 2 1 & & X         eXeXeXeXeXeXeXeXeX",
"eXeXeXeXeXeXeXeXeXeXeX                ; U t.) m.N.m.M.m.m.m.m.m.m.m.M.b.t         eXeXeXeXeXeXeXeXeX",
"eXeXeXeXeXeXeXeXeXeXeX      O O       ; L 6 > 9 5 B ' v.b.m.m.M.m.m.1.e X       . eXeXeXeXeXeXeXeXeX",
"eXeXeXeXeXeXeXeXeX      1 C j.j.o.q O ; x -         .   9 2.b.n.' 9           M z.eXeXeXeXeXeXeXeXeX",
"eXeXeXeXeXeXeXeX      # j.l.U I y.R.q - L f -     * #.y B ` | J 0 _ u . - ; . N c.c.eXeXeXeXeXeXeXeX",
"eXeXeXeXeXeXeXeX      # j.l.r.U r.r.L x L t.f     +.1XT.X.L.R.P.3.;X;X, d f . N c.c.eXeXeXeXeXeXeXeX",
"eXeXeXeXeXeXeXeX      # j.E.R.F.r.U Z G { } Z     < Q J H.~.!.L.| ( h O B A O N c.c.eXeXeXeXeXeXeXeX",
"eXeXeXeXeXeXeXeXeX      w l.W.!.G.; o 3 ` ,.Z .     . B J.+X~.Q.P.m     & 3 . N x.eXeXeXeXeXeXeXeXeX",
"eXeXeXeXeXeXeXeX          M Q.!.F.O   3 { v.v.:.:.' G { v.J.,X6X$X+X5.X       # 1 eXeXeXeXeXeXeXeXeX",
"eXeXeXeXeXeXeXeX          m c.W.G.L = 1 R / ..3.b.b.| L.W.W.2X2X@X#XY.$           eXeXeXeXeXeXeXeXeX",
"eXeXeXeXeXeXeXeX          # B T.h.< 6 f U U I t.)  .{ J D D $.*.*.$.B .           eXeXeXeXeXeXeXeXeX",
"eXeXeXeXeXeXeXeX          . < i.e.* $ ; f I I v v E ..J B $             6 d .     eXeXeXeXeXeXeXeXeX",
"eXeXeXeXeXeXeXeXeXeX      e U.7X1XV.2   . D y.F.F...t 0 t q $       % G E x X eXeXeXeXeXeXeXeXeXeXeX",
"eXeXeXeXeXeXeXeXeXeXeXeXeX* e e.b r X     C [ y.y.y.k.k.k.X.k.k.k.k.o.D L I eXeXeXeXeXeXeXeXeXeXeXeX",
"eXeXeXeXeXeXeXeXeXeXeXeX  O & & 2 & .     . o . o + % q q 0 q q q 0 3     .     eXeXeXeXeXeXeXeXeXeX",
"eXeXeXeXeXeXeXeXeXeX& 9 9 A 2.b.m.b.K 4           O 9 F | { Y U { { A .           eXeXeXeXeXeXeXeXeX",
"eXeXeXeXeXeXeXeXO t G | } } { | v.J.M.b.] 2 .     . & > & & - - & & $       .     eXeXeXeXeXeXeXeXeX",
"eXeXeXeXeXeXeXeXO A | } ^ Y Y U  .2.v.b.N.b.] 5 .                       X 9 H 7 @ eXeXeXeXeXeXeXeXeX",
"eXeXeXeXeXeXeX- d J | { | ^ z d < d H ,.2.b.M.b.] 9 .               + 5 H { T k j eXeXeXeXeXeXeXeXeX",
"eXeXeXeXeXeX  ; U Y R / c k s =   . Z { { ' 1.1.1.| A A A F A F A A H ] | ^ j g j eXeXeXeXeXeXeXeXeX",
"eXeXeXeXeXeX= i j j j j j p i i =   a Y v.G.l.| } } | | } { } } } X.l.l...P k g j j eXeXeXeXeXeXeXeX",
"eXeXeXeXeXk k k v v k g i + eXeX    + d W u.r.P T R E ^ Y U Y R T [ [ G z s j j j j eXeXeXeXeXeXeXeX",
"eXeXeXeXd.d././.d.p.v j eXeXeXeXeX        X - - - 7 U Y Y Y Y x 6 $ o o + y >.0.0.0.6.eXeXeXeXeXeXeX",
"eXeXeX..5.I.I.d.d.'.a.j eXeXeXeXeX      . h / ` ` ` { } } } } | J 7 o   @.C.D.Z.5.5.:.} eXeXeXeXeXeX",
"eXeX,.w.I.I.I.I.I.q.<.T eXeXeXeXeXeX    . f U E { | } | F 4 A | } c g i 8 e y ;.8.6.,.| eXeXeXeXeXeX",
"eXeX,.Z.(.'././.d.d.9.eXeXeXeXeXeXeXo = g v Y U U R } | A $ Z | } c g j = * $.0.6.0.;.R eXeXeXeXeXeX",
"eXeX1.B.q.*.l j k c ~ ( ( P k T eXeXa s j ^ / U I E { | / U E ^ R z j g = % J P j j c ( ( Q P / eXeX",
"eXeXeXA.*.j s s k Q 3.b.J.H : A t : *X%Xe.F ^ U I v c z v I I v k s s e., X z k g j <.J.M.2.} } eXeX",
"eXeXeXeXl j j s j z P Q ( r O A 0 < <XwX8X*Xi.d g g p p s s g d g e.*X4Xg.o i p s a p n Z J } } eXeX",
"eXeXeXeXeX, , a k / 1.3. .n . 4 * : >XwXqXwX4X-X&X&X%X-X%X%X&X&X%X4X0X:Xs.e . d h .   . 5 F } | eXeX",
"eXeXeXeXeX      : ' v.,.3 o       < f.OXoXoXoX:X7X9X9X9X9X9XqX7XXX.X XC.C.>.1 t S X & Z J J J eXeXeX",
"eXeXeXeXeXeX    . t 9 . eXeXeXr -.'.{.[.[.[.].].|.|.|.|.|.|.|.|.'.`.(.D.C.C.Z.V     . .   . . eXeXeX",
"eXeXeXeXeXeXeXeXeXeXeXeXeXeXX 9.w.O.O.-.(.(.(.(.S.`.].[.].].}.}.(.A.B.C.A.A.A.eXeXeXeXeXeXeXeXeXeXeX",
"eXeXeXeXeXeXeXeXeXeXeXeXeXeXX * *   o @ r @.@.2 % u `.].].].{.`.:.y * & @.8.A.eXeXeXeXeXeXeXeXeXeXeX",
"eXeXeXeXeXeXeXeXeXeXeXeXeXeXeX  = s j s g :       5 ,.I.{.].{.w.S $       * @.eXeXeXeXeXeXeXeXeXeXeX",
"eXeXeXeXeXeXeXeXeXeXeXeXeXeXj i a s j j eXeXeXeXeXeX| I.{.].w.4.eX              eXeXeXeXeXeXeXeXeXeX",
"eXeXeXeXeXeXeXeXeXeXeXeXeXeX0.%.b +.4.B.eXeXeXeXeXeXH w.].`.3...eXeXeX& * %       eXeXeXeXeXeXeXeXeX",
"eXeXeXeXeXeXeXeXeXeXeXeXeXeXV.9.a.=.4.&.eXeXeXeXeXeX. 9.`.<.eXeXeXeXeX&.$.V X eXeXeXeXeXeXeXeXeXeXeX",
"eXeXeXeXeXeXeXeXeXeXeXeXeXeXeXeX%.s.s.s.eXeXeXeXeXeXeXr y 2 eXeXeXeX8.4.8   eXeXeXeXeXeXeXeXeXeXeXeX",
"eXeXeXeXeXeXeXeXeXeXeXeXeXeXeXeXeX}.}.).A.eXeXeXeXeXeXeXeXeXeXeXeXC.A.A.8.eXeXeXeXeXeXeXeXeXeXeXeXeX",
"eXeXeXeXeXeXeXeXeXeXeXeXeXeXeXeXb &.8.A.A.D.eXeXeXeXeXeXeXeXeXeXeXA.A.C.C.V.,.eXeXeXeXeXeXeXeXeXeXeX",
"eXeXeXeXeXeXeXeXeXj z Q ^ ^ ^ Q L j c ! b ! ! eXeXeXeXeXeXeXeXeX! ! ! ! ! ! c c z j z z c eXeXeXeXeX"
};
