/* XPM */
static char *result[] = {
/* columns rows colors chars-per-pixel */
"50 50 142 2 ",
"   c #251D2E",
".  c #281E2E",
"X  c #2A1D30",
"o  c #2D222F",
"O  c #32232F",
"+  c #3A242F",
"@  c #352331",
"#  c #3B2532",
"$  c #3D2A32",
"%  c #412534",
"&  c #452A34",
"*  c #4C2B31",
"=  c #4D2938",
"-  c #532B33",
";  c #5C2C31",
":  c #542B3A",
">  c #5C2D3C",
",  c #473034",
"<  c #4D3233",
"1  c #553333",
"2  c #5C3434",
"3  c #543B37",
"4  c #583A37",
"5  c #56333A",
"6  c #5F313A",
"7  c #612C33",
"8  c #632D3E",
"9  c #692F3F",
"0  c #653133",
"q  c #6C3333",
"w  c #653D37",
"e  c #6B3D34",
"r  c #64303E",
"t  c #6C323F",
"y  c #69393D",
"u  c #743534",
"i  c #7B3734",
"p  c #713835",
"a  c #7D3A35",
"s  c #73343E",
"d  c #7A353C",
"f  c #7D3B3E",
"g  c #6C4239",
"h  c #6F4B3B",
"j  c #744235",
"k  c #7A4837",
"l  c #73453B",
"z  c #7E453C",
"x  c #75493E",
"c  c #662E40",
"v  c #682F40",
"b  c #6C3240",
"n  c #713541",
"m  c #743941",
"M  c #793C42",
"N  c #7B4B40",
"B  c #853A35",
"V  c #8C3C35",
"C  c #81373A",
"Z  c #843B3B",
"A  c #8B3C39",
"S  c #953E36",
"D  c #993F36",
"F  c #913F38",
"G  c #854A37",
"H  c #86433E",
"J  c #8B453D",
"K  c #8F493C",
"L  c #974036",
"P  c #9A4337",
"I  c #904E37",
"U  c #9E4837",
"Y  c #944139",
"T  c #9C4638",
"R  c #944B3D",
"E  c #9D4A3A",
"W  c #83533D",
"Q  c #89513A",
"!  c #96503C",
"~  c #9E5639",
"^  c #A24B37",
"/  c #A04739",
"(  c #A34D39",
")  c #A5523A",
"_  c #AA543A",
"`  c #AD5A3B",
"'  c #B35D3A",
"]  c #B6613B",
"[  c #BA653D",
"{  c #BD693F",
"}  c #824343",
"|  c #804842",
" . c #8B4B44",
".. c #904B40",
"X. c #9A4E40",
"o. c #8C5B40",
"O. c #945246",
"+. c #9A5545",
"@. c #935E42",
"#. c #9C5A45",
"$. c #A65740",
"%. c #A45D45",
"&. c #AD5C42",
"*. c #B25E40",
"=. c #966142",
"-. c #9D6543",
";. c #A46644",
":. c #AC6244",
">. c #A46A45",
",. c #AC6945",
"<. c #A66148",
"1. c #AB6448",
"2. c #AF694A",
"3. c #B46241",
"4. c #B96542",
"5. c #BE6B42",
"6. c #B16748",
"7. c #B46C4A",
"8. c #AC7047",
"9. c #B47548",
"0. c #BC724A",
"q. c #BA7949",
"w. c #C16E43",
"e. c #C57244",
"r. c #C97645",
"t. c #CC7A47",
"y. c #C57649",
"u. c #C97748",
"i. c #C57A4B",
"p. c #CD7B49",
"a. c #D07F4A",
"s. c #CD814D",
"d. c #D4844C",
"f. c #D8874D",
"g. c #D6894E",
"h. c #DC8C4F",
"j. c #DE8E50",
"k. c #DF9050",
"l. c #E08F4F",
"z. c #E08F50",
"x. c #E29150",
"c. c None",
/* pixels */
"b ` f.h.h.h.h.h.j.f.u.' ) b v b S D S P P u.j.z.%.b n b m D S n b $ n s.h.h.h.h.h.k.1.c ..z.j.h.s.$ ",
"b ` d.h.h.h.h.h.5.T ) ' ) b b n S S P u.d.f.h.h.g.s.d.1.n ) d.s.s.i.s.h.h.h.h.h.j.h.h.<.M w.j.h.g.s.",
"b ` d.h.h.3.E ' ) ` d.d.d.i.p.i.P P u.j.h.h.j.h.j.j.j.7.} d.j.j.h.h.h.h.h.j.h.h.h.h.j.2.Z ] [ { h.j.",
"Y ` [ { _ L 4.5.5.d.h.h.j.j.k.j.u.P [ 4.d.h.h.j.j.j.e.a 2 w.j.j.h.h.h.h.h.h.h.h.h.w.z 5 A ' ' ' ) ( ",
"P u.a.a.p.p.w.r.f.j.h.h.j.j.j.f.j.u.( ' d.l.j.z.j.k.e.q 1 ] e.h.f.j.j.j.h.h.j.j.w.( 0 $ n J ' ` S F ",
"P d.h.j.j.5.` r.j.g.h.h.f.f.j.j.j.j.} M ] 5.w.' $.' G + 1 ' ' e.j.j.f.j.h.j.z.w.T u # % v v J ` L S ",
"P d.j.h.x.) ' f.j.j.f.j.j.j.f.j.j.j.n c ) ' ' ^ D u +   - ' ' ' *.j.j.j.j.5.&.T D ; 3 1.7.%.n ' L P ",
"D d.j.z.0.4.a.j.f.j.j.j.f.j.j.j.d.%.<.<.e.t.Q 2 i 7 3 ! -.e.' ` P f.j.5.*.T S D u e 9.x.z.d.#.e F ; ",
"P d.t.5.P u.z.h.h.h.h.h.j.j.f.j.g.n a.z.z.z.N X k %.>.x.x.f.r.w.) 4.4.P S S P u g 9.x.j.h.l.s.W V O ",
"P e.' P S &.d.j.h.h.h.h.j.z.j.5.4.%.g.h.h.a.X.- @.x.z.h.l.h.h.h.e.L S S S A u g 9.x.h.h.h.h.h.d.0 O ",
"A ` ' P S S ] f.j.j.j.j.f.w.5.S T f.j.h.j.w.^ d 1.z.h.h.h.h.h.h.w.P D S A n @ -.x.h.h.h.h.h.f.:.o o ",
"b _ 5.' _ T ( e.a.a.a.t.4.S S D a g.j.z.a.' T d %.a.d.j.h.j.h.w.S A S S s > @ #.z.h.h.h.h.k.p.V * o ",
"d 3.g.h.x.3.] ] ' ' ` ( S S i u & p.a.d.[ T S i R ' 5.d.a.u.w.S A t F S n $ o =.z.h.h.h.f.t.w.S u O ",
"Y d.j.h.h.h.h.e.' [ ' ( / i @ % m ) ' ' ] ^ F s R ] ' ' ` S S A 9 s S S 9 @ o ;.x.h.h.h.4.S D B O o ",
"b s.h.h.h.h.h.e.r.j.h.z.y.v n t S D _ ' ' ]  .M K _ ' ' ) S F v s S D S * @ > 6.h.f.h.5.F S S u O o ",
"n s.{ p.h.h.5.e.j.h.d.d.0.b A n S S S ` ^ t.h.l.W e ` ( S F A b t F S D S s r E ] ' ' ) S P B O o o ",
"s s.[ ' ' ' ( 4.h.5.L T H v b n S S P T t.j.h.h.h.o.= n t b b n n m P P P m v R ' ' ' ) S D a o o o ",
"b d.[ ' ' ^ S Z H P F A > % d F L m i.f.h.h.h.h.h.g.f.-.O $ } d.d.d.g.f.f.} v b R ] ) S S i O o o o ",
"b ] ] ' ( D S ( ^ S A > 4 s.a.d.p.T d.j.h.h.h.h.h.h.h.h.=.< s.j.h.h.h.h.j.d. .v b f > + # # o o O o ",
"b _ T T L S D ) ( ` d.i.i.h.h.h.j.a.{ d.l.h.h.h.h.j.j.u.z * w.j.h.h.h.h.h.l. .v b t r > N -.X o o o ",
"J ` ` ` P D d %.d.d.l.h.h.h.h.j.j.j.d.w.d.j.h.h.h.x.y.U u , [ h.h.h.h.h.h.h.d.g : v v  .s.j.=.o o o ",
"P r.] ^ D C %.a.h.h.h.h.h.h.h.h.j.j.z.[ [ 5.{ { ] _ ( i + * ' w.h.h.h.j.l.h.5.; = b c O.z.j.f.=.o o ",
"P d.[ T D t 6.z.h.h.h.h.h.h.h.j.g.*.` ' ' ' ' ' ( S u g -.` ' ' w.h.*.` ` &./ * = v  .i.j.j.j.d.e o ",
"P d.[ T S %.s.l.h.h.h.h.j.h.j.h.*.S S T ' ' ' ' ( _ ,.8.x.h.r.' ' w.P S S S D * x 6.y.z.j.j.d.4.V + ",
"P d.[ T S r.l.h.h.h.h.h.l.f.3.' S D S F _ ' ' ' U 3.x.z.j.h.h.e.] ` P L S L p + =.x.l.h.h.h.a.^ V O ",
"P d.` P S e.z.j.h.h.h.f.r.w.S S L S S ' w.r.e.[ R &.x.j.h.h.h.f.] ' P L L u +   =.l.h.h.h.h.p.S V O ",
"D d.3.( P ' r.t.r.t.t.w.` ^ F D S P ' d.l.h.h.d. . .i.z.j.j.j.d.G ` P D u + o o =.l.h.h.h.l.p.S V O ",
"P d.h.r.) T ) ' ' ' ' ' ' ` ) S S P f.h.h.h.h.l.7.t z a.p.t.e.,.+ R S i + o o   =.x.h.h.f.a.e.D V O ",
"P f.h.l.r.[ ' ' ' ' ] w.e.j.f._ S S u.j.h.h.h.h.l.;.k ' ' ` S V & b V # o o o @ ! d.s.d.e.' ( S V O ",
"A t.d.p.t.5.' ' ' ] y.h.h.h.j.h._ ) ` t.h.h.h.h.h.l.t.' ' ) S i > b A # o # @ > K ` ' ' ' ) D S u O ",
"t ` ' T L E _ ' [ r.j.h.h.h.h.h.h.h.5.' d.h.h.h.h.h.a.[ ' S u @ # b E 5 @ > t b 9 H ` ' ) F B u O o ",
"s ` ` T F d c 1.h.h.h.j.h.h.h.h.h.h.h.[ d.h.h.h.h.h.h.h.y.u % 9 b n s.j. .M b t t 9 H ~ V u o O o o ",
"L ` U L i b b 1.l.h.h.h.h.h.h.h.g.f.d.[ a.j.j.h.h.j.f.f.>.& 9 c t M d.j.f.j. .b b b s 6 $ + + O o o ",
"b ` ' T F ( ` y.j.h.h.h.h.h.h.d.T P T ` a.f.h.f.f.f.0.S L V B @ & s.g.j.h.h.j.O.c J ` ` ~ V V i O o ",
"t _ ] T S f b 1.l.h.h.h.j.j.a.( D P ` ' [ ( T T T / u - S B $ n s.h.h.h.j.h.h.h.+.v K _ L a + + o o ",
"L ` U L f b v R [ r.h.h.j.a.( a.d.a.f.[ ' ' T S D Z t : # & c M g.h.h.j.h.h.h.j.+.c n 6 + @ o o o o ",
"s _ T s t t v R ' ' { { 4.5.a.h.h.h.h.{ ' ' ^ S S C b : X o % M g.j.h.h.h.h.j.j.#.c b c > > : o o o ",
"t i.] s t t v R ] ' ' ' [ d.h.h.h.h.h.) ' ] T *.t.u.y.q.#.> : < g.h.h.h.h.j.j.k.&.d v v v } i.-.o o ",
"n d.{ ) s c v s E ] ' ' { l.h.h.h.h.h.( Z f :.f.j.h.h.z.d.0.1.r g.h.j.h.h.h.h.k.4.7 h 0.0.i.x.i.o o ",
"n s.s.[ f +.7.7.3.' ' ` ) e.h.h.h.h.3.T d 8 7.l.j.j.h.h.j.x.s.N g.h.h.h.h.h.j.5.( R q.k.j.k.d.) q O ",
"n d.l.{ :.d.l.l.d.t.e.) S ` j.j.h.3.D C t 8 %.d.z.j.z.z.d.*.$.M f.h.j.j.h.l.w.^ S 4.z.j.j.j.t.S V O ",
"n 5.4.] d.l.h.h.h.h.d.e.' P 3.4.h.T C 9 +.%.` 5.e.a.z.d.` S A M j.h.h.j.l.w.T V _ u.j.z.j.f.4.S V O ",
"b ` P U p.l.h.h.h.h.h.l.d.3.&.P %.Z c O.d.z.p.e.[ 4.t.*.S V i n e.j.j.w.5.T S _ p.z.j.d.r.w.` D V O ",
"b ~ P S { p.f.h.h.h.h.h.h.z.f.F 8 b O.f.j.j.j.j.e.' ' ` *.$.+.+.5.u.w.P S S S [ a.t.p.w.' ' ( D V O ",
"b S S S ` ' r.h.j.f.g.j.h.f.w.F b b d.h.j.j.j.z.w.Y ~ t.l.l.l.l.h.' S S S L S _ ' ' ' ' ' ` S S V O ",
"b Z S S ( ' e.d.d.j.j.j.h.a.S F b 6 i.h.h.j.a.t.+.% h x.h.h.h.h.h.' P S S L S ^ ' ' ' ' ' ` S S u O ",
"v b V P S _ ' ' w.f.j.j.j.w.S A b @ ) p.d.p._ F a : k j.h.h.h.h.t.' P S L S D B U ] ' ' ' ` D B o o ",
"c.b A S S _ ' ' ' w.f.a.w.S A b 6 + I ' ] T V t > J ] 5.f.d.s.t.T ` P L S L V * e ` ' ' ` ) S i O o ",
"c.c.b A S ` ' ' ' ] _ S L F b r @ o O ~ ' ^ - o o p ] ] ' _ L L P ` T P S P * . o j ] ) P D B o o c.",
"c.c.c.c.c.' ' ' ' ' ) D c.c.c.c.c.c.c.' ] T c.c.c.c.] ' ] ` L c.c.c.' ' T c.c.c.c.' ' ) S D c.c.c.c."
};
